<svg preserveAspectRatio="none" width="100%" height="100%" overflow="visible" style="display: block;" viewBox="0 0 100 82" fill="none" xmlns="http://www.w3.org/2000/svg">
<g id="Frame 1410119264">
<path id="Vector" d="M27.1666 80.0302C25.4999 73.6227 24.1515 67.2327 22.6928 60.8692C22.3231 59.2562 22.15 57.6101 21.9814 55.9656C21.8006 54.2027 21.106 52.7764 19.659 51.6688C16.5595 49.2964 13.5245 46.8376 10.4659 44.4105C10.0942 44.1156 9.72229 43.8312 9.11638 43.6587C8.8719 44.7534 9.01754 45.8003 9.08507 46.8319C9.34407 50.7883 9.59011 54.7463 9.92097 58.6969C10.2698 62.8625 10.7375 67.0168 11.2979 71.1602C11.4698 72.4315 11.5283 73.7181 11.6541 74.9961C11.7469 75.9387 11.3303 76.4783 10.4204 76.6038C8.40717 76.8816 6.39039 77.1226 4.35383 77.1499C3.58048 77.1602 3.24901 76.8109 3.2062 76.0299C3.10173 74.1241 2.92867 72.2222 2.81689 70.3167C2.38461 62.949 2.08653 55.5742 1.56618 48.2103C1.27905 44.147 1.08053 40.0748 0.990206 35.9946C0.839826 29.202 0.447369 22.4152 0.19668 15.6244C0.0828021 12.5396 0.0629373 9.45129 0.00402187 6.36451C-0.00299223 5.99719 -0.00274614 5.62842 0.0204993 5.26203C0.136793 3.42922 0.255063 3.18482 2.06793 2.86699C7.95577 1.83474 13.7756 0.306896 19.8224 0.391556C21.1569 0.41024 22.493 0.108034 23.8326 0.0204448C25.4949 -0.0882392 25.8021 0.195714 25.9785 1.86741C26.2288 4.23947 26.4677 6.61281 26.7025 8.9865C27.2872 14.8958 27.8474 20.8068 28.8613 26.6642C29.0695 27.8673 29.5129 28.4878 30.7844 28.7577C36.1438 29.8956 41.5367 30.8774 46.8539 32.2215C47.9583 32.5006 48.5742 33.0632 48.9623 34.1607C52.7926 44.9909 55.7539 56.0747 58.4552 67.2349C58.7131 68.3002 58.8281 69.4023 58.9829 70.4911C59.066 71.0761 58.852 71.5308 58.2239 71.6186C56.0608 71.9209 53.9931 72.6434 51.8589 73.0727C50.3423 73.3778 49.8835 73.1302 49.4769 71.6288C47.1186 62.9194 44.7647 54.2088 42.4234 45.4947C42.2015 44.669 41.8615 43.91 41.4592 43.1656C41.1072 42.5144 40.6771 42.3875 40.0353 42.7701C36.6558 44.7853 33.2757 46.7998 29.8745 48.7769C28.9772 49.2985 29.0092 50.0315 29.1829 50.8644C30.0976 55.2505 31.3861 59.5363 32.5605 63.8537C33.8206 68.4865 35.1586 73.1018 36.0292 77.8344C36.343 79.5402 36.1468 79.8158 34.4457 80.3011C32.9088 80.7396 31.3892 81.2405 29.8533 81.683C27.801 82.2743 27.696 82.2019 27.1666 80.0302Z" fill="var(--fill-0, #F1F1F1)"/>
<g id="arrow-forward">
<path id="Vector_2" d="M83.3203 31.1563L93.1641 41L83.3203 50.8438M91.7969 41H71.8359" stroke="var(--stroke-0, #F1F1F1)" stroke-width="4" stroke-linecap="round" stroke-linejoin="round"/>
</g>
</g>
</svg>
