<svg preserveAspectRatio="none" width="100%" height="100%" overflow="visible" style="display: block;" viewBox="0 0 121 64" fill="none" xmlns="http://www.w3.org/2000/svg">
<g id="Group 20262">
<path id="Vector" d="M93.9433 31.1106C93.5726 30.7722 93.2416 30.4697 92.9226 30.1782C92.5609 30.374 92.5516 30.6842 92.5249 30.9362C92.0127 35.7607 90.948 40.488 90.0465 45.2444C89.7038 47.0524 89.4485 48.877 89.1579 50.6947C89.0247 51.5283 88.8335 51.666 87.9942 51.552C86.9947 51.4162 85.9914 51.3075 84.9926 51.1666C84.0826 51.0381 83.9227 50.8153 84.0286 49.9236C84.4863 46.0675 84.9732 42.2146 85.3917 38.3543C85.7939 34.644 86.0772 30.9206 86.5003 27.2129C86.9489 23.2803 87.2957 19.337 87.8159 15.4115C88.1936 12.5616 88.4649 9.69786 88.8908 6.85268C89.159 5.0609 89.6648 3.30465 89.6671 1.47084C89.6679 0.842248 90.1616 0.621832 90.7042 0.577456C92.0874 0.464315 93.4715 0.327578 94.8576 0.290385C98.3153 0.197608 101.775 0.161913 105.233 0.088433C106.493 0.0616561 107.75 -0.0947734 109.013 0.0857104C110.124 0.244434 110.566 0.653022 110.503 1.77546C110.374 4.06873 110.182 6.35862 110 8.64871C109.833 10.7615 109.648 12.8729 109.467 14.9846C109.263 17.3726 109.085 19.7638 108.734 22.1362C108.624 22.8846 108.768 23.4813 109.315 24.0643C112.689 27.6543 116.025 31.2792 119.38 34.8868C120.057 35.6141 120.329 36.5031 120.359 37.45C120.603 45.1523 121.09 52.8482 120.985 60.56C120.983 60.7622 120.991 60.9651 120.976 61.1665C120.893 62.3409 120.557 62.6373 119.371 62.7008C118.036 62.7722 116.705 62.9028 115.37 62.9755C114.232 63.0375 114.039 62.8544 113.962 61.644C113.772 58.6184 113.667 55.5899 113.604 52.5582C113.495 47.3554 113.309 42.1543 113.173 36.9519C113.156 36.2851 112.869 36.0601 112.237 36.0983C110.146 36.2247 108.054 36.3357 105.962 36.4408C105.419 36.4681 105.225 36.7506 105.198 37.265C105.065 39.7354 104.974 42.2102 104.756 44.6734C104.291 49.9139 104.317 55.1714 104.115 60.4208C104.087 61.1525 104.033 61.8831 103.993 62.6143C103.955 63.2887 103.625 63.6623 102.938 63.7807C101.711 63.9919 100.468 63.8295 99.2365 63.9925C98.642 64.0712 98.5184 63.5129 98.5091 63.0427C98.4895 62.0574 98.4959 61.0706 98.5235 60.0854C98.5922 57.6366 98.6783 55.1884 98.7583 52.74C98.9184 47.8433 99.151 42.9502 99.5004 38.0632C99.5534 37.3219 99.4204 36.6629 98.8767 36.1139C97.2411 34.4624 95.6136 32.8029 93.9433 31.1106Z" fill="var(--fill-0, #F1F1F1)"/>
<path id="Vector_2" d="M4.98921 31.639C5.93142 26.8981 7.32792 22.3258 8.26371 17.6497C9.21395 12.9015 10.4462 8.21335 11.2936 3.44383C11.5332 2.09464 11.7974 1.88248 13.0608 2.04851C17.3835 2.61654 21.7122 3.12826 26.0552 3.51871C26.6257 3.57 27.1936 3.65265 27.7647 3.69308C28.4218 3.73959 28.7049 4.08925 28.6598 4.71723C28.4866 7.13274 28.3089 9.54793 28.1295 11.963C27.9701 14.1082 27.8265 16.2549 27.6361 18.3975C27.5335 19.5528 27.3934 20.7091 27.1828 21.8491C27.0407 22.6185 27.2898 23.0395 27.9807 23.3732C30.94 24.8023 33.8834 26.2641 36.8293 27.7204C39.1614 28.8733 39.1641 28.878 38.8613 31.4447C38.4735 34.732 38.1099 38.0227 37.6746 41.3039C37.2622 44.4126 36.7672 47.5104 36.3169 50.6141C36.2289 51.2202 35.9162 51.5348 35.2879 51.5732C34.5426 51.6189 33.7998 51.7038 33.0558 51.7703C32.1716 51.8492 31.8652 51.5658 31.9242 50.6637C32.0065 49.4062 32.109 48.1498 32.219 46.8944C32.4043 44.7788 32.6074 42.6648 32.793 40.5492C32.9118 39.1949 33.0191 37.8395 33.1161 36.4835C33.1348 36.2217 33.197 35.9413 33.0355 35.6952C32.8286 35.5969 32.6849 35.7279 32.5589 35.833C31.2431 36.931 29.9306 38.0328 28.6239 39.1415C28.1902 39.5094 27.9887 39.9756 27.9084 40.555C27.3041 44.9113 26.5255 49.2372 25.599 53.5387C25.0319 56.171 24.5602 58.8235 24.041 61.466C23.9792 61.7806 23.902 62.0938 23.8076 62.4003C23.6597 62.8805 23.3096 63.07 22.8247 62.9771C21.6756 62.7572 20.5239 62.5463 19.3843 62.2844C18.4587 62.0716 18.3064 61.8248 18.441 60.8574C18.6246 59.5376 18.8187 58.2185 19.0457 56.9054C19.9505 51.6737 20.8198 46.4366 21.5418 41.1764C21.6221 40.5915 21.4154 40.2372 20.7923 40.1169C17.5657 39.494 14.3419 38.8572 11.1183 38.219C10.4419 38.0851 10.056 38.2751 9.87783 39C8.66193 43.9473 7.65668 48.9358 6.82444 53.9595C6.48903 55.9842 6.00731 57.9784 5.53169 59.9729C5.33003 60.8185 4.94698 61.0046 4.10772 60.8469C3.10441 60.6584 2.09808 60.4846 1.09053 60.3196C0.178036 60.1702 -0.101 59.8129 0.0308801 58.888C0.432052 56.0748 1.0459 53.2996 1.56504 50.5075C2.40944 45.9661 3.22768 41.4209 3.9257 36.854C4.19023 35.1233 4.61947 33.4174 4.98921 31.639Z" fill="var(--fill-0, #F1F1F1)"/>
<path id="Vector_3" d="M61.8785 60.6548C60.7203 56.2789 59.7833 51.915 58.7696 47.5692C58.5127 46.4676 58.3924 45.3435 58.2752 44.2204C58.1496 43.0165 57.6669 42.0424 56.6613 41.286C54.5074 39.6658 52.3984 37.9867 50.2729 36.3291C50.0146 36.1277 49.7562 35.9335 49.3351 35.8157C49.1652 36.5633 49.2664 37.2783 49.3134 37.9827C49.4933 40.6847 49.6643 43.3877 49.8942 46.0857C50.1367 48.9305 50.4617 51.7676 50.8511 54.5972C50.9705 55.4654 51.0112 56.3441 51.0986 57.2169C51.1631 57.8606 50.8736 58.2291 50.2413 58.3148C48.8423 58.5045 47.4408 58.6691 46.0255 58.6877C45.4881 58.6948 45.2578 58.4562 45.228 57.9228C45.1554 56.6213 45.0352 55.3225 44.9575 54.0212C44.6571 48.9895 44.45 43.9531 44.0884 38.9241C43.8888 36.1492 43.7509 33.3682 43.6881 30.5817C43.5836 25.9428 43.3109 21.3079 43.1367 16.6703C43.0575 14.5636 43.0437 12.4545 43.0028 10.3465C42.9979 10.0956 42.9981 9.8438 43.0142 9.59358C43.0951 8.34191 43.1772 8.175 44.437 7.95794C48.5286 7.25299 52.5729 6.20959 56.7749 6.2674C57.7023 6.28016 58.6307 6.07378 59.5616 6.01396C60.7168 5.93974 60.9302 6.13366 61.0529 7.27531C61.2268 8.89525 61.3928 10.5161 61.556 12.1371C61.9623 16.1727 62.3516 20.2095 63.0562 24.2097C63.2009 25.0313 63.509 25.4551 64.3925 25.6394C68.1169 26.4165 71.8645 27.087 75.5595 28.0049C76.327 28.1956 76.7549 28.5797 77.0247 29.3292C79.6864 36.7255 81.7442 44.2949 83.6214 51.9165C83.8006 52.644 83.8805 53.3967 83.9881 54.1403C84.0459 54.5398 83.8972 54.8503 83.4607 54.9103C81.9575 55.1167 80.5206 55.6101 79.0376 55.9033C77.9836 56.1117 77.6648 55.9426 77.3823 54.9173C75.7434 48.9694 74.1077 43.0206 72.4806 37.0695C72.3265 36.5057 72.0902 35.9874 71.8106 35.479C71.566 35.0342 71.2671 34.9475 70.8211 35.2089C68.4727 36.5851 66.1238 37.9608 63.7603 39.311C63.1367 39.6672 63.159 40.1678 63.2796 40.7366C63.9153 43.7321 64.8107 46.659 65.6268 49.6074C66.5025 52.7713 67.4323 55.9232 68.0372 59.1552C68.2553 60.3201 68.119 60.5083 66.9369 60.8398C65.8688 61.1392 64.8128 61.4813 63.7455 61.7835C62.3193 62.1874 62.2464 62.1379 61.8785 60.6548Z" fill="var(--fill-0, #F1F1F1)"/>
</g>
</svg>
