<svg width="24" height="24" viewBox="0 0 24 24" fill="none" xmlns="http://www.w3.org/2000/svg">
<path d="M15.5925 3.02719C14.6803 2.04234 13.4062 1.5 12 1.5C10.5863 1.5 9.30797 2.03906 8.4 3.01781C7.48219 4.00734 7.035 5.35219 7.14 6.80437C7.34813 9.66937 9.52828 12 12 12C14.4717 12 16.6481 9.66984 16.8595 6.80531C16.9659 5.36625 16.5159 4.02422 15.5925 3.02719ZM20.25 22.5H3.75C3.53403 22.5028 3.32015 22.4574 3.12392 22.3672C2.92769 22.2769 2.75405 22.1441 2.61562 21.9783C2.31094 21.6141 2.18812 21.1167 2.27906 20.6137C2.67469 18.4191 3.90938 16.5755 5.85 15.2812C7.57406 14.1323 9.75797 13.5 12 13.5C14.242 13.5 16.4259 14.1328 18.15 15.2812C20.0906 16.575 21.3253 18.4186 21.7209 20.6133C21.8119 21.1162 21.6891 21.6136 21.3844 21.9778C21.246 22.1437 21.0724 22.2766 20.8761 22.367C20.6799 22.4573 20.466 22.5028 20.25 22.5Z" fill="#D6D6D6"/>
</svg>
