<svg width="23" height="23" viewBox="8.5 8.5 23 23" fill="none" xmlns="http://www.w3.org/2000/svg">
<path d="M8.5 19.9279C8.59801 19.9113 8.70798 19.8943 8.84158 19.8746C9.03144 19.8482 9.19768 19.8245 9.37594 19.8016C9.54721 19.7766 9.70644 19.7506 9.87827 19.7259C10.051 19.6991 10.2112 19.6711 10.3837 19.6443C10.5515 19.6142 10.7069 19.5829 10.8752 19.5526C11.0547 19.5198 11.2212 19.486 11.3998 19.4544C11.5706 19.4225 11.7295 19.3882 11.9007 19.3534C12.0729 19.3112 12.2328 19.2697 12.4043 19.2284C12.5813 19.1759 12.7466 19.1233 12.9234 19.0708C13.0675 19.022 13.2003 18.9731 13.3419 18.9255C13.3705 18.9155 13.3903 18.9043 13.4208 18.8926C13.6024 18.8063 13.7733 18.7207 13.9546 18.6342C14.0654 18.5641 14.1659 18.4948 14.2755 18.4224C14.3386 18.374 14.3925 18.3287 14.4559 18.2805C14.59 18.1616 14.7125 18.044 14.7937 17.8786C14.9183 17.6764 14.9766 17.4637 14.9911 17.2234C14.9839 17.0901 14.973 16.9699 14.9583 16.8382C14.9481 16.8001 14.9354 16.7734 14.936 16.7471C14.9397 16.5848 14.8938 16.436 14.8243 16.283C14.7656 16.1196 14.7051 15.9665 14.6439 15.8023C14.5845 15.6702 14.5257 15.5491 14.4659 15.4181C14.4375 15.3639 14.4099 15.3197 14.3801 15.2653C14.2825 15.0941 14.1871 14.9331 14.0898 14.7621C14.0399 14.6792 13.9918 14.6064 13.9406 14.5241C13.8731 14.4216 13.8087 14.3286 13.742 14.2256C13.6413 14.0758 13.5429 13.936 13.4422 13.7883C13.4306 13.7672 13.4215 13.754 13.411 13.7307C13.2834 13.5492 13.1572 13.3779 13.0282 13.1978C12.9983 13.1559 12.9712 13.1228 12.9416 13.0799C12.8433 12.9488 12.7475 12.8275 12.6483 12.6966C12.5685 12.5937 12.4921 12.5005 12.4181 12.4086C12.4206 12.4101 12.4236 12.4052 12.4213 12.3988C12.4189 12.3923 12.4086 12.3833 12.4054 12.3742C12.3468 12.3025 12.2913 12.2401 12.2278 12.1714C12.127 12.0309 12.0341 11.8966 11.9438 11.7527C11.957 11.7366 11.9677 11.7301 11.9865 11.7292C12.1223 11.8344 12.2498 11.9339 12.3819 12.0423C12.4647 12.1104 12.543 12.1696 12.6287 12.2355C12.7277 12.31 12.8194 12.3778 12.9144 12.4549C13.0426 12.5551 13.1674 12.6462 13.2974 12.7443C13.3265 12.7676 13.3505 12.7839 13.3793 12.8089C13.4275 12.8481 13.4707 12.8785 13.5142 12.9087C13.64 12.9959 13.7658 13.0829 13.8991 13.1774C13.9349 13.2041 13.9633 13.2234 13.9962 13.2517C14.1433 13.3553 14.2858 13.4499 14.434 13.5526C14.5559 13.6288 14.6722 13.6968 14.7928 13.7738C14.8524 13.8184 14.9078 13.8539 14.9694 13.8973C15.1262 13.9903 15.2767 14.0755 15.4328 14.1691C15.5045 14.2099 15.5706 14.2423 15.642 14.2791C15.6474 14.2835 15.6613 14.2838 15.6676 14.2915C15.7686 14.3421 15.8633 14.3851 15.9635 14.4367C16.1297 14.5088 16.2904 14.5724 16.452 14.6358C16.453 14.6357 16.4526 14.6336 16.4544 14.6419C16.4662 14.6517 16.4763 14.6533 16.4975 14.6579C16.666 14.6969 16.8235 14.7329 16.9928 14.7735C17.1636 14.8062 17.3227 14.8284 17.4964 14.7947C17.6775 14.7731 17.8386 14.7286 17.9935 14.6339C18.1489 14.5373 18.2996 14.4481 18.4042 14.2885C18.453 14.233 18.4926 14.1828 18.5407 14.1297C18.625 14 18.7008 13.8731 18.7847 13.7405C18.8705 13.5705 18.948 13.4063 19.0313 13.2395C19.0427 13.2293 19.0434 13.2213 19.0452 13.2043C19.1045 13.0328 19.1576 12.8697 19.2187 12.6994C19.2712 12.5299 19.3157 12.3678 19.3672 12.1971C19.4154 12.0168 19.4566 11.8451 19.5032 11.663C19.5075 11.6251 19.5064 11.5975 19.516 11.5645C19.5547 11.4197 19.5827 11.2803 19.6161 11.1299C19.6506 10.9576 19.6796 10.7963 19.7127 10.624C19.7431 10.4528 19.7693 10.2926 19.8002 10.1214C19.8296 9.93924 19.8543 9.76812 19.8822 9.58511C19.9051 9.41387 19.9249 9.25452 19.9499 9.08442C19.973 8.90525 19.9909 8.73684 20.0088 8.56842C20.0146 8.55197 20.0203 8.53553 20.0361 8.50431C20.059 8.49564 20.0719 8.50175 20.0848 8.50786C20.0859 8.51994 20.087 8.53202 20.0897 8.56506C20.1177 8.75639 20.1441 8.92675 20.1695 9.11022C20.1909 9.282 20.2133 9.44068 20.2342 9.61192C20.2621 9.79306 20.2915 9.96165 20.3197 10.1431C20.3461 10.3175 20.3735 10.4789 20.4013 10.6529C20.4334 10.8134 20.4652 10.9614 20.4958 11.119C20.4974 11.1412 20.5001 11.1537 20.5004 11.1781C20.5373 11.3503 20.5766 11.5106 20.6154 11.6828C20.66 11.8682 20.7052 12.0417 20.7502 12.2269C20.7974 12.3956 20.8448 12.5526 20.8938 12.7201C20.9302 12.8308 20.9649 12.9309 20.9996 13.0415C21.0284 13.1145 21.0573 13.1771 21.0869 13.2504C21.1707 13.4249 21.2538 13.5887 21.3384 13.7629C21.3904 13.854 21.4409 13.9348 21.4922 14.0244C21.5033 14.0455 21.5136 14.0578 21.5277 14.0792C21.5918 14.1574 21.6522 14.2266 21.7147 14.3053C21.8032 14.4028 21.8768 14.5067 22.008 14.5556C22.1749 14.6823 22.3503 14.7614 22.5615 14.7827C22.7319 14.8107 22.891 14.8363 23.0607 14.7788C23.2408 14.7405 23.4085 14.7006 23.5874 14.6617C23.7575 14.5962 23.9164 14.5298 24.0862 14.4617C24.1987 14.4109 24.3002 14.3618 24.4101 14.313C24.4311 14.3038 24.4437 14.2943 24.4631 14.2822C24.4699 14.2795 24.4817 14.2709 24.491 14.2711C24.5242 14.2536 24.5482 14.2359 24.5826 14.217C24.761 14.1159 24.9291 14.0158 25.1072 13.9146C25.2015 13.8586 25.2858 13.8037 25.3795 13.7458C25.4592 13.6944 25.5293 13.6461 25.6094 13.5957C25.6668 13.5617 25.7156 13.5314 25.7616 13.4973C25.8637 13.4217 25.9644 13.3441 26.0738 13.2658C26.0955 13.2549 26.109 13.2457 26.1325 13.2353C26.2736 13.1405 26.4056 13.0481 26.535 12.9522C26.5687 12.9271 26.5943 12.8909 26.6339 12.8577C26.7098 12.8066 26.7756 12.7576 26.8508 12.7078C26.9594 12.6302 27.0584 12.5533 27.1665 12.4728C27.2742 12.3899 27.3727 12.3108 27.4809 12.23C27.5438 12.1813 27.5972 12.1343 27.6597 12.0836C27.8222 11.9572 27.9754 11.8344 28.1346 11.7112C28.1494 11.7062 28.1518 11.6993 28.1579 11.6851C28.1796 11.6716 28.1916 11.663 28.2045 11.6664C28.2071 11.6862 28.2087 11.6941 28.2048 11.7091C28.1811 11.7468 28.1628 11.7772 28.1346 11.8112C27.9967 11.918 27.9395 12.0728 27.8392 12.206C27.7641 12.3047 27.6983 12.4003 27.6217 12.4974C27.5589 12.5677 27.507 12.6365 27.447 12.7095C27.3242 12.8696 27.2096 13.0255 27.0887 13.1874C27.075 13.2085 27.0677 13.2238 27.0515 13.2433C26.9288 13.41 26.8149 13.5725 26.6923 13.7413C26.6447 13.8092 26.6059 13.8709 26.5597 13.9346C26.4952 14.0294 26.438 14.1222 26.3724 14.222C26.2739 14.3714 26.1836 14.5138 26.0856 14.6615C26.0564 14.7043 26.0349 14.742 26.0059 14.7866C25.9057 14.9554 25.813 15.1173 25.7132 15.2871C25.6603 15.3893 25.6145 15.4835 25.5626 15.5863C25.5249 15.6673 25.4933 15.7399 25.4553 15.8197C25.39 15.9898 25.331 16.1526 25.2648 16.3236C25.219 16.504 25.1806 16.6763 25.1372 16.8589C25.1175 17.0378 25.0868 17.2066 25.1389 17.3857C25.17 17.5735 25.2187 17.7438 25.3309 17.8993C25.4186 18.0129 25.5044 18.1165 25.5952 18.2285C25.686 18.3023 25.7719 18.3677 25.861 18.4418C25.9372 18.4938 26.01 18.5371 26.0896 18.5877C26.271 18.6823 26.4457 18.7696 26.6277 18.8645C26.6998 18.8974 26.7645 18.9227 26.8386 18.9526C26.9474 18.9898 27.0469 19.0224 27.1557 19.062C27.315 19.1106 27.4649 19.1522 27.6232 19.2011C27.8026 19.2478 27.9737 19.2873 28.1529 19.3331C28.3237 19.3734 28.4862 19.4076 28.6598 19.4446C28.7011 19.4491 28.7314 19.4509 28.7694 19.4609C28.899 19.4924 29.021 19.5157 29.153 19.5444C29.3221 19.5772 29.4812 19.6046 29.6509 19.637C29.8304 19.6679 29.9993 19.6938 30.1793 19.7238C30.3523 19.7494 30.5141 19.7709 30.6846 19.7989C30.8605 19.8247 31.0278 19.8439 31.207 19.8661C31.3155 19.8807 31.4121 19.8923 31.5 19.9096C31.3916 19.9378 31.292 19.9603 31.1793 19.9801C30.9996 20.0009 30.8329 20.0243 30.6538 20.0457C30.4822 20.0678 30.3231 20.092 30.1524 20.1153C29.9833 20.1403 29.8257 20.1661 29.6559 20.1906C29.4761 20.2216 29.3086 20.2539 29.1291 20.2845C29.0668 20.293 29.0165 20.3024 28.9665 20.3137C28.7515 20.3621 28.5366 20.4111 28.3104 20.4586C28.2488 20.4698 28.1983 20.4823 28.1365 20.494C28.074 20.5063 28.0222 20.5172 27.9719 20.5327C27.8635 20.5662 27.7559 20.6021 27.6363 20.6361C27.457 20.6862 27.2893 20.7372 27.1104 20.7879C26.9278 20.8552 26.7564 20.9227 26.5745 20.9912C26.4069 21.0741 26.2498 21.156 26.0834 21.2406C25.9595 21.3272 25.8449 21.4112 25.7211 21.496C25.6623 21.5448 25.6127 21.5927 25.5548 21.6457C25.463 21.7643 25.3796 21.8779 25.2875 21.9975C25.1986 22.1815 25.1279 22.362 25.1265 22.5758C25.1361 22.7478 25.1483 22.9063 25.1589 23.0766C25.2015 23.2512 25.2458 23.414 25.2922 23.5879C25.3637 23.7668 25.4331 23.9346 25.5039 24.1126C25.526 24.1649 25.5468 24.2071 25.5679 24.2594C25.6043 24.3332 25.6404 24.3968 25.6791 24.4698C25.7089 24.5212 25.7362 24.5632 25.7663 24.6157C25.8702 24.7935 25.9713 24.9608 26.0763 25.1305C26.0802 25.1328 26.0865 25.1263 26.0807 25.137C26.1883 25.3222 26.3018 25.4967 26.4161 25.6814C26.4686 25.7647 26.5202 25.8378 26.5762 25.9207C26.6392 26.0149 26.6978 26.0993 26.759 26.1935C26.8791 26.3635 26.9967 26.5236 27.1175 26.6927C27.1495 26.7347 27.1783 26.7679 27.2072 26.8111C27.3318 26.9807 27.4562 27.1403 27.5826 27.3086C27.5954 27.3307 27.6062 27.3441 27.6192 27.3676C27.7458 27.5376 27.8702 27.6973 27.9962 27.8675C28.0468 27.937 28.0958 27.9962 28.1466 28.0645C28.1643 28.0925 28.18 28.1114 28.182 28.1312C28.159 28.1323 28.1498 28.1326 28.1323 28.1275C27.9856 28.0218 27.8472 27.9216 27.7074 27.8121C27.6777 27.7789 27.6493 27.755 27.6171 27.7223C27.4528 27.5902 27.2923 27.467 27.1259 27.3359C27.0928 27.3093 27.0657 27.2906 27.0359 27.2634C26.8986 27.1574 26.764 27.0599 26.6238 26.9544C26.5318 26.8859 26.4454 26.8255 26.355 26.7561C26.2815 26.7018 26.2121 26.6565 26.1367 26.6026C25.9652 26.4807 25.7996 26.3674 25.6293 26.2456C25.5758 26.2068 25.5271 26.1765 25.4708 26.1397C25.3545 26.0645 25.2457 25.9958 25.1321 25.9184C25.0399 25.8609 24.9525 25.8123 24.8577 25.7563C24.7087 25.6742 24.5669 25.5996 24.4154 25.5207C24.2997 25.4636 24.1936 25.4108 24.0792 25.3517C23.9063 25.2868 23.7418 25.2282 23.5683 25.1634C23.4964 25.1409 23.4333 25.1246 23.3596 25.1043C23.156 25.0423 22.9563 25.0301 22.7586 25.0366C22.6205 25.0412 22.4836 25.0837 22.3356 25.1088C22.2215 25.1644 22.118 25.2203 22.0053 25.2799C21.8768 25.4008 21.7576 25.5181 21.6295 25.639C21.5883 25.6947 21.556 25.747 21.5145 25.805C21.4417 25.9194 21.378 26.0281 21.3058 26.1427C21.215 26.3472 21.1327 26.5457 21.0433 26.7517C21.0271 26.785 21.0181 26.8108 21.0019 26.8441C20.9433 27.007 20.8918 27.1624 20.8325 27.326C20.7808 27.5088 20.7367 27.6834 20.6856 27.8664C20.6471 28.0367 20.6156 28.1987 20.5772 28.3697C20.5282 28.5691 20.481 28.7585 20.4454 28.9501C20.4161 29.1081 20.4007 29.2686 20.3713 29.4365C20.3404 29.6069 20.3172 29.7689 20.2894 29.9418C20.2606 30.1224 20.2363 30.2921 20.2076 30.4733C20.1853 30.6458 20.1675 30.8068 20.1447 30.9786C20.1183 31.159 20.0968 31.3286 20.0691 31.4996C20.0526 31.5007 20.0423 31.5003 20.0331 31.487C20.013 31.3048 19.9916 31.1355 19.9711 30.9541C19.9499 30.7837 19.9277 30.6255 19.9069 30.4552C19.88 30.2721 19.8517 30.1011 19.8242 29.9179C19.7972 29.7458 19.7695 29.5859 19.7427 29.4138C19.7106 29.2322 19.6776 29.063 19.6456 28.8819C19.6078 28.6822 19.5704 28.4942 19.5285 28.3073C19.5207 28.2723 19.4946 28.2415 19.4765 28.1964C19.4558 28.0759 19.4354 27.9679 19.4161 27.8482C19.3648 27.6656 19.3125 27.4946 19.2602 27.3129C19.1987 27.1308 19.1372 26.9595 19.0742 26.7782C19.0531 26.7267 19.0333 26.6852 19.0129 26.6325C18.9427 26.4711 18.8733 26.3208 18.8031 26.16C18.7101 26.0077 18.6179 25.866 18.5216 25.7155C18.4974 25.6823 18.4773 25.6579 18.4551 25.6236C18.3197 25.455 18.1768 25.3078 17.9806 25.2086C17.8974 25.1715 17.8209 25.1419 17.7352 25.1059C17.4798 25.0249 17.2308 25.0117 16.9669 25.0646C16.8967 25.0799 16.8383 25.0952 16.7685 25.1091C16.6566 25.1365 16.5562 25.1654 16.4447 25.1935C16.2751 25.262 16.1166 25.3311 15.9474 25.4009C15.7664 25.4899 15.5962 25.5783 15.4158 25.6677C15.2474 25.7665 15.0893 25.8643 14.9208 25.963C14.8075 26.0306 14.7046 26.0974 14.5923 26.1674C14.5166 26.2187 14.4505 26.2669 14.3749 26.3148C14.2123 26.4247 14.0591 26.5348 13.8964 26.6472C13.8359 26.6888 13.7848 26.728 13.7242 26.7701C13.6126 26.8543 13.5105 26.9358 13.3986 27.0211C13.269 27.116 13.1493 27.207 13.0201 27.2998C12.9673 27.3392 12.924 27.3767 12.8718 27.4184C12.7112 27.5447 12.5595 27.6669 12.399 27.7926C12.3794 27.8115 12.3686 27.8268 12.3475 27.8414C12.2753 27.8814 12.2132 27.9216 12.1521 27.9633C12.1015 27.9978 12.0521 28.0341 11.9927 28.0621C12.0196 27.9999 12.056 27.9451 12.1013 27.8857C12.1288 27.8534 12.1464 27.8249 12.1664 27.7983C12.2475 27.6897 12.3293 27.5816 12.4187 27.4676C12.4637 27.4075 12.5008 27.3532 12.5468 27.295C12.6738 27.1251 12.792 26.9591 12.9163 26.7873C12.9298 26.7662 12.937 26.7509 12.9541 26.734C13.0953 26.5475 13.2268 26.3626 13.3656 26.1729C13.3875 26.1429 13.4021 26.1176 13.4255 26.0875C13.5163 25.9536 13.5984 25.8247 13.6889 25.6891C13.7789 25.552 13.8606 25.4216 13.9512 25.287C13.9855 25.2371 14.011 25.1914 14.0439 25.1391C14.1435 24.9669 14.2357 24.8012 14.3372 24.6325C14.3861 24.552 14.4257 24.4746 14.4708 24.3888C14.5195 24.2878 14.5626 24.1953 14.6124 24.0944C14.6865 23.9146 14.7539 23.7433 14.8277 23.5631C14.8709 23.387 14.9078 23.2198 14.9426 23.0509C14.9405 23.049 14.9367 23.0532 14.9482 23.0476C14.9883 22.872 15.0191 22.7021 14.9704 22.5181C14.9589 22.4658 14.9345 22.4251 14.9375 22.3864C14.948 22.2484 14.8913 22.1352 14.8221 22.0138C14.7189 21.8307 14.609 21.6646 14.4395 21.5376C14.4172 21.518 14.3992 21.5056 14.3773 21.4838C14.2283 21.3828 14.0831 21.2912 13.9325 21.1909C13.675 21.0299 13.4007 20.9292 13.1261 20.8293C13.0686 20.8084 13.0085 20.7946 12.9425 20.7694C12.761 20.7113 12.5868 20.6613 12.4028 20.606C12.2247 20.5601 12.0564 20.5195 11.8809 20.4725C11.8487 20.4644 11.8236 20.4626 11.7904 20.4567C11.7761 20.4525 11.77 20.4522 11.7579 20.4465C11.7439 20.4467 11.7361 20.4524 11.7229 20.4469C11.6669 20.4237 11.6165 20.41 11.5654 20.4004C11.507 20.3895 11.4479 20.3823 11.3782 20.3692C11.2083 20.3378 11.0492 20.3108 10.8798 20.2787C10.7008 20.247 10.532 20.2204 10.3542 20.1866C10.1846 20.1559 10.024 20.1325 9.85187 20.1057C9.68174 20.0822 9.52313 20.0621 9.35417 20.0367C9.17922 20.0121 9.01461 19.9928 8.85001 19.9735C8.73733 19.9582 8.62464 19.9428 8.5 19.9279Z" fill="#D6D6D6"/>
</svg>
