<svg width="61" height="29" viewBox="0 0 61 29" fill="none" xmlns="http://www.w3.org/2000/svg">
<path d="M15.562 15.3462C15.562 19.6242 12.059 22.1972 7.78101 22.1972C3.50301 22.1972 6.11506e-06 19.0972 6.11506e-06 14.8192H4.03001C4.03001 16.9892 5.61101 18.2602 7.93601 18.2602C9.95101 18.2602 11.532 17.5162 11.532 15.3462C11.532 10.6962 0.682006 13.7962 0.682006 5.98422C0.682006 2.01622 3.41001 0.00121862 7.68801 0.00121862C11.966 0.00121862 14.694 2.54322 14.694 6.82122H10.664C10.664 4.68222 9.61001 3.93822 7.68801 3.93822C5.76601 3.93822 4.71201 4.71322 4.71201 6.10822C4.71201 10.6962 15.562 6.94522 15.562 15.3462ZM17.2595 14.1992C17.2595 9.76622 20.8245 6.20122 25.2265 6.20122C29.6285 6.20122 33.2245 9.76622 33.2245 14.1992C33.2245 18.6322 29.6285 22.1972 25.2265 22.1972C23.6455 22.1972 22.4055 21.7942 21.3205 21.0192V28.1492H17.2595V14.1992ZM25.2575 18.2602C27.5515 18.2602 29.1945 16.4932 29.1945 14.1992C29.1945 11.9052 27.5515 10.1382 25.2575 10.1382C22.9635 10.1382 21.2585 11.9052 21.2585 14.1992C21.2585 16.4932 22.9635 18.2602 25.2575 18.2602ZM42.7822 6.20122C47.2152 6.20122 50.7802 9.76622 50.7802 14.1992C50.7802 18.6322 47.2152 22.1972 42.7822 22.1972C38.3492 22.1972 34.7842 18.6322 34.7842 14.1992C34.7842 9.76622 38.3492 6.20122 42.7822 6.20122ZM42.8132 10.1382C40.5192 10.1382 38.8142 11.9052 38.8142 14.1992C38.8142 16.4932 40.5192 18.2602 42.8132 18.2602C45.1072 18.2602 46.7502 16.4932 46.7502 14.1992C46.7502 11.9052 45.1072 10.1382 42.8132 10.1382ZM60.2393 10.3862H57.4493V14.6332C57.4493 17.1132 58.2553 18.1052 60.2393 18.1052V22.0422C56.2713 22.0422 53.4193 19.8412 53.4193 14.6332V10.3862H51.1253V6.44922H53.4193V0.280217H57.4493V6.44922H60.2393V10.3862Z" fill="#D6D6D6"/>
</svg>
