<svg width="710" height="1027" viewBox="0 0 710 1027" fill="none" xmlns="http://www.w3.org/2000/svg">
<path d="M211.997 90.1747C250.194 66.709 288.089 43.4461 325.949 20.1288C334.032 15.1511 341.818 9.67027 350.047 4.95835C365.013 -3.61005 389.371 -2.89678 397.807 21.8194C402.304 34.9966 405.083 48.8115 407.958 62.4815C417.797 109.259 427.256 156.117 437.018 202.911C442.185 227.68 447.809 252.354 452.996 277.118C460.663 313.724 480.889 341.677 512.11 361.491C536.697 377.095 561.997 391.575 586.969 406.573C611.661 421.404 636.418 436.129 660.973 451.184C668.469 455.779 675.886 460.75 682.463 466.544C694.22 476.902 694.738 494.022 683.743 505.198C677.763 511.276 676.437 517.145 677.962 525.749C681.62 546.379 683.648 567.302 686.207 588.123C690.494 622.997 694.683 657.883 698.914 692.764C701.701 715.741 704.484 738.719 707.285 761.694C707.948 767.131 709.237 772.556 709.276 777.994C709.413 797.24 688.911 808.926 672.233 799.096C645.699 783.456 619.27 767.638 592.881 751.755C577.48 742.485 562.225 732.972 546.945 723.504C541.135 719.904 535.818 719.862 529.751 723.607C493.897 745.735 457.821 767.504 421.917 789.552C399.638 803.233 377.57 817.257 355.322 830.99C347.674 835.711 339.886 840.239 331.943 844.442C325.124 848.05 323.333 853.238 324.633 860.57C326.898 873.348 328.926 886.183 330.516 899.06C333.333 921.867 335.645 944.736 338.378 967.554C339.486 976.803 341.192 985.979 342.519 995.204C342.874 997.666 342.973 1000.18 342.959 1002.68C342.869 1018.54 328.892 1029.72 313.438 1025.85C308.349 1024.57 303.334 1022.32 298.792 1019.65C271.367 1003.55 244.025 987.297 216.775 970.898C161.278 937.499 105.816 904.041 50.4326 870.455C36.7784 862.174 23.3452 853.509 10.0663 844.637C1.02568 838.597 -1.96074 830.086 1.25026 819.382C9.04932 793.385 16.3874 767.247 24.3754 741.309C39.3246 692.766 54.6037 644.325 69.7434 595.84C73.9119 582.491 78.0516 569.132 82.2453 555.79C84.5948 548.316 85.4333 540.876 82.7424 533.255C67.9252 491.294 61.481 447.344 52.1557 404.078C41.5626 354.929 30.9624 305.782 20.3855 256.63C18.9842 250.119 17.6777 243.586 16.369 237.055C13.3613 222.044 17.8882 209.916 30.925 201.715C49.9509 189.747 69.2746 178.253 88.4078 166.454C124.268 144.339 160.081 122.148 195.919 99.9972C201.158 96.7591 206.427 93.5699 211.997 90.1747ZM51.1361 695.831C49.1296 702.354 47.1194 708.876 45.1175 715.4C36.9159 742.13 28.7417 768.868 20.5018 795.586C18.0033 803.687 14.7905 811.609 12.8696 819.838C10.6161 829.491 13.5695 834.631 22.1751 839.658C48.7663 855.192 75.4692 870.542 101.844 886.437C156.027 919.09 210.032 952.04 264.097 984.891C279.602 994.312 294.882 1004.12 310.603 1013.16C320.77 1019.01 331.546 1012.13 330.832 1000.5C330.324 992.223 328.793 984.012 327.747 975.768C323.159 939.614 318.596 903.457 313.993 867.305C309.832 834.617 305.49 801.951 301.496 769.243C298.956 748.435 296.513 727.599 294.793 706.713C293.878 695.601 289.465 688.236 279.62 682.435C244.775 661.905 210.285 640.764 175.918 619.44C168.306 614.717 162.149 615.156 154.813 619.681C126.483 637.159 98.0087 654.409 69.389 671.409C59.9977 676.987 53.0824 683.904 51.1361 695.831ZM636.332 536.87C630.366 540.51 624.396 544.145 618.433 547.79C577.537 572.787 536.612 597.735 495.766 622.813C483.291 630.472 470.939 638.342 458.722 646.406C453.078 650.131 453.386 653.817 459.097 657.468C462.179 659.438 465.351 661.267 468.49 663.149C489.043 675.469 509.618 687.755 530.14 700.129C535.086 703.112 539.977 703.938 545.21 700.992C551.584 697.404 558.178 694.174 564.353 690.278C581.515 679.447 598.387 668.156 615.603 657.415C633.67 646.143 652 635.294 670.221 624.27C675.803 620.893 677.956 616.263 677.054 609.57C673.386 582.388 670.051 555.161 666.597 527.95C665.988 523.152 663.142 521.52 659.04 523.824C651.642 527.98 644.313 532.261 636.332 536.87ZM487.162 735.772C497.526 729.451 508.075 723.408 518.187 716.706C524.425 712.572 524.065 709.467 517.639 705.671C510.761 701.609 503.617 697.991 496.78 693.865C479.966 683.718 463.251 673.406 446.518 663.126C441.895 660.286 437.447 659.737 432.521 662.737C417.595 671.83 402.523 680.682 387.534 689.671C375.7 696.768 364.021 704.132 352.045 710.978C345.896 714.493 338.931 715.295 332.273 712.531C325.879 709.876 319.865 706.318 313.602 703.33C311.955 702.545 309.373 701.484 308.343 702.189C306.947 703.143 305.841 705.747 305.992 707.526C306.723 716.138 307.886 724.714 308.951 733.297C312.474 761.689 315.999 790.081 319.591 818.464C319.987 821.589 320.635 824.71 321.488 827.742C323.202 833.834 325.927 835.019 331.378 831.681C337.475 827.947 343.178 823.569 349.278 819.841C395.007 791.902 440.791 764.053 487.162 735.772ZM567.103 700.595C563.475 702.943 559.667 705.059 556.267 707.7C552.412 710.695 552.491 713.2 556.333 716.121C559.369 718.431 562.6 720.522 565.901 722.44C588.771 735.733 611.775 748.796 634.545 762.258C648.571 770.55 662.203 779.506 676.124 787.98C681.434 791.212 687.05 791.973 692.526 788.007C697.914 784.105 698.181 778.564 697.355 772.729C696.284 765.158 694.999 757.615 694.009 750.033C691.016 727.11 688.044 704.183 685.217 681.238C683.591 668.039 682.433 654.78 680.725 641.592C679.925 635.415 677.12 634.14 671.869 637.218C658.091 645.294 644.352 653.441 630.7 661.729C609.672 674.496 588.731 687.404 567.103 700.595ZM134.861 617.47C137.398 615.881 139.925 614.275 142.474 612.705C152.093 606.78 152.062 605.464 142.194 599.353C127.574 590.3 113.445 580.706 103.097 566.505C101.166 563.856 98.1067 562.029 95.5681 559.823C93.6686 562.807 91.0142 565.554 89.9881 568.812C81.1016 597.037 72.4741 625.343 63.9249 653.672C63.4899 655.113 63.9531 657.652 64.9668 658.451C65.8303 659.132 68.3619 658.485 69.6929 657.669C91.2517 644.465 112.737 631.139 134.861 617.47ZM451.075 327.529C444.664 331.365 438.078 334.945 431.895 339.119C426.946 342.461 426.226 345.925 429.732 350.518C434.147 356.302 438.947 361.905 444.294 366.809C446.293 368.643 451.036 369.77 453.256 368.665C460.956 364.83 468.178 359.998 475.409 355.282C478.223 353.446 478.429 350.469 476.392 347.842C471.307 341.285 466.036 334.873 460.862 328.385C458.197 325.045 455.148 324.717 451.075 327.529ZM150.871 511.443C148.956 512.763 146.968 513.988 145.143 515.421C140.92 518.736 140.35 521.835 143.745 526.059C148.316 531.746 153.213 537.176 158.061 542.637C161.103 546.065 164.814 546.884 168.79 544.398C174.98 540.526 181.076 536.502 187.169 532.477C190.883 530.024 191.027 527.003 188.334 523.642C183.355 517.429 178.362 511.229 173.43 504.98C170.824 501.68 167.718 501.169 164.208 503.232C159.916 505.755 155.709 508.424 150.871 511.443ZM274.757 435.335C272.128 437.078 269.412 438.705 266.889 440.59C263.299 443.273 262.929 446.712 265.624 450.141C269.94 455.631 274.396 461.021 279.001 466.271C282.373 470.115 286.683 470.903 291.196 468.456C297.19 465.206 303.162 461.88 308.912 458.223C313.994 454.991 314.326 451.627 310.509 447.064C305.93 441.591 301.248 436.204 296.672 430.728C293.506 426.939 289.8 426.271 285.588 428.694C282.128 430.684 278.767 432.845 274.757 435.335ZM188.238 505.293C191.854 509.408 195.119 513.933 199.236 517.463C201.252 519.191 205.519 520.5 207.614 519.524C214.505 516.313 220.975 512.135 227.398 508.002C231.418 505.416 231.949 501.524 228.99 497.725C224.607 492.098 220.079 486.574 215.399 481.191C211.581 476.799 208.173 476.347 203.016 479.323C198.842 481.731 194.752 484.297 190.729 486.951C180.612 493.623 180.421 494.962 188.238 505.293ZM377.893 415.545C382.31 412.593 386.851 409.808 391.104 406.636C394.621 404.013 395 400.556 392.159 397.105C387.308 391.214 382.451 385.32 377.376 379.624C375.348 377.348 372.629 375.692 369.402 377.575C363.233 381.172 356.901 384.558 351.072 388.651C345.425 392.616 345.024 397.295 349.237 402.793C352.164 406.613 355.268 410.324 358.567 413.826C365.295 420.969 368.92 421.283 377.893 415.545ZM250.618 451.965C248.774 452.616 246.792 453.023 245.11 453.963C239.594 457.048 234.163 460.286 228.744 463.541C223.331 466.792 221.949 469.938 225.549 475.018C230.016 481.322 235.265 487.245 241.04 492.356C243.154 494.226 248.352 494.63 251.075 493.379C257.205 490.564 262.749 486.415 268.372 482.576C271.8 480.236 272.65 476.731 269.961 473.495C263.928 466.238 257.538 459.277 250.618 451.965ZM396.947 385.587C398.973 387.555 400.685 390.196 403.103 391.321C406.195 392.758 410.554 394.55 413.135 393.407C419.897 390.414 426.074 386.038 432.31 381.948C434.994 380.187 435.797 377.202 433.826 374.511C428.729 367.552 423.533 360.643 417.944 354.083C416.646 352.559 412.922 351.224 411.509 351.995C404.244 355.957 397.167 360.351 390.435 365.168C386.519 367.97 386.227 372.178 389.276 376.16C391.594 379.189 394.066 382.1 396.947 385.587ZM305.975 423.588C310.675 429.365 315.014 435.491 320.178 440.817C325.139 445.934 329.817 445.698 335.837 441.691C339.973 438.939 344.28 436.444 348.506 433.828C354.096 430.368 354.654 427.765 350.722 422.587C346.217 416.654 341.618 410.792 337.039 404.916C334.836 402.089 332.089 400.866 328.784 402.874C321.691 407.183 314.515 411.395 307.767 416.202C306.238 417.291 306.317 420.639 305.975 423.588ZM279.083 101.45C280.475 101.489 282.237 102.098 283.201 101.475C290.312 96.8774 297.358 92.1622 304.187 87.1594C305.543 86.1658 306.792 83.6169 306.525 82.0515C305.054 73.4028 303.409 64.7538 301.159 56.2815C300.22 52.7486 297.135 51.6889 293.566 53.9668C289.502 56.5617 285.285 58.9162 281.188 61.4619C271.93 67.214 270.424 70.6049 272.352 81.3054C272.823 83.9231 273.279 86.5721 274.094 89.0932C275.397 93.1266 276.994 97.0651 279.083 101.45ZM345.606 44.0197C344.588 40.3308 343.754 36.5789 342.511 32.9674C340.545 27.2501 337.862 26.2638 332.713 29.4478C327.477 32.6859 322.52 36.3782 317.268 39.5887C311.714 42.9841 310.795 44.8766 312.27 51.3997C313.807 58.1996 315.273 65.016 316.729 71.8339C317.547 75.6609 321.148 77.562 324.654 75.667C328.604 73.5319 332.424 71.1439 336.223 68.7439C349.113 60.6011 349.344 59.9686 345.606 44.0197ZM190.896 131.57C192.087 136.744 193.021 141.995 194.544 147.069C195.973 151.831 199.132 153.092 203.378 150.52C209.336 146.912 215.039 142.878 220.79 138.936C224.651 136.289 225.942 132.468 224.899 128.015C223.386 121.557 221.509 115.184 220.031 108.719C218.5 102.021 215.996 101.004 210.071 104.854C205.07 108.104 200.051 111.333 194.918 114.366C190.824 116.785 189.254 120.24 189.821 124.815C190.066 126.793 190.408 128.758 190.896 131.57ZM108.632 177.733C110.015 184.212 111.051 190.792 112.891 197.139C114.425 202.43 117.908 203.383 122.468 200.529C127.387 197.45 132.298 194.359 137.194 191.242C142.841 187.646 144.298 184.355 142.927 177.781C141.573 171.286 140.06 164.823 138.593 158.352C137.486 153.469 134.698 152.136 130.279 154.595C125.204 157.42 120.323 160.597 115.218 163.363C109.724 166.34 107.176 170.561 108.632 177.733ZM135.09 564.687C138.899 562.308 142.809 560.075 146.481 557.501C148.993 555.739 150.517 553.167 148.268 550.239C143.015 543.403 137.605 536.686 132.206 529.964C129.742 526.898 126.846 526.389 123.454 528.63C118.181 532.114 112.772 535.395 107.534 538.929C102.789 542.13 102.033 546.085 105.386 550.72C108.013 554.352 110.908 557.809 113.887 561.164C122.398 570.751 122.88 570.798 135.09 564.687ZM254.539 78.0017C248.016 81.9902 241.473 85.9468 234.977 89.9796C231.193 92.3289 229.707 95.4558 230.851 100.106C232.596 107.198 233.722 114.44 235.239 121.592C236.393 127.033 238.945 128.268 243.77 125.511C249.254 122.378 254.573 118.952 259.932 115.603C264.683 112.634 266.665 108.25 265.644 102.811C264.419 96.2835 263.229 89.6951 261.188 83.4048C260.448 81.1253 257.295 79.6291 254.539 78.0017ZM151.049 159.538C151.967 163.915 152.888 168.292 153.803 172.669C154.646 176.709 157.433 178.669 160.464 176.903C166.912 173.146 173.306 169.265 179.476 165.07C184.071 161.946 185.456 157.389 183.89 151.911C181.975 145.214 180.229 138.468 178.474 131.726C177.481 127.908 174.75 127.483 171.966 128.965C166.259 132.002 160.684 135.325 155.266 138.855C150.039 142.259 147.711 147.093 149.483 153.431C149.974 155.188 150.348 156.979 151.049 159.538ZM98.0483 184.823C96.3554 181.78 95.4174 176.862 90.4504 179.352C83.7921 182.691 77.552 186.87 71.1665 190.744C68.191 192.549 66.6705 195.204 67.3963 198.73C68.9997 206.519 70.4642 214.35 72.4614 222.041C74.0256 228.064 76.8171 228.962 81.9049 225.575C87.8468 221.618 93.9004 217.769 99.4264 213.283C101.206 211.839 102.503 208.402 102.228 206.09C101.408 199.191 99.6992 192.398 98.0483 184.823ZM57.8406 239.29C61.3871 236.789 62.4666 233.369 61.5552 229.23C59.983 222.091 58.6053 214.898 56.7347 207.837C55.5261 203.275 52.8229 202.015 48.8451 204.435C43.1977 207.871 37.7317 211.717 32.6614 215.954C28.825 219.16 26.8792 223.821 27.6042 228.953C28.4628 235.03 29.522 241.109 31.0107 247.057C32.1635 251.663 35.1632 252.963 39.3847 250.644C45.4918 247.29 51.3029 243.396 57.8406 239.29ZM432.605 503.163C427.442 507.432 427.169 509.459 432.485 513.022C439.225 517.539 446.315 521.567 453.464 525.415C455.294 526.4 458.442 526.856 460.081 525.939C467.158 521.981 474.038 517.621 480.691 512.98C483.177 511.245 484.211 507.902 480.936 505.877C473.319 501.167 465.619 496.497 457.541 492.681C454.959 491.462 450.659 492.099 447.893 493.434C442.703 495.94 438.059 499.574 432.605 503.163ZM501.943 468.396C498.966 467.924 495.399 466.17 493.121 467.218C486.199 470.403 479.604 474.41 473.211 478.6C468.105 481.948 468.228 484.786 473.396 488.011C480.03 492.151 486.94 495.846 493.685 499.812C497.25 501.907 500.651 501.596 504.058 499.536C509.47 496.264 514.957 493.109 520.28 489.7C525.479 486.369 525.535 483.244 520.411 479.862C514.577 476.011 508.562 472.434 501.943 468.396ZM468.807 398.714C463.068 395.358 457.486 391.673 451.506 388.822C449.369 387.802 445.821 387.934 443.697 389.039C437.669 392.176 431.966 395.969 426.282 399.727C421.262 403.046 421.169 405.801 426.182 409.223C432.493 413.531 438.865 417.865 445.665 421.284C448.336 422.627 452.592 422.445 455.499 421.327C460.406 419.439 464.951 416.464 469.402 413.569C479.065 407.281 478.999 405.292 468.807 398.714ZM431.17 325.844C435.839 322.958 440.618 320.23 445.14 317.128C448.147 315.066 451.665 312.5 450.394 308.307C448.185 301.025 445.5 293.85 442.462 286.871C440.898 283.279 437.663 282.618 434.097 284.878C428.898 288.172 423.617 291.337 418.374 294.564C414.781 296.776 412.854 300.055 413.409 304.199C414.112 309.449 415.124 314.683 416.396 319.826C419.286 331.513 420.044 331.787 431.17 325.844ZM434.07 576.443C430.908 574.612 427.561 573.036 424.624 570.896C418.456 566.404 413.028 567.753 407.417 572.021C403.331 575.129 398.868 577.749 394.527 580.514C390.548 583.049 389.983 585.961 393.992 588.639C401.559 593.695 409.493 598.232 417.484 602.601C419.042 603.452 421.952 603.257 423.556 602.345C430.035 598.664 436.32 594.622 442.529 590.492C446.007 588.179 445.678 585.162 442.758 582.632C440.262 580.469 437.403 578.725 434.07 576.443ZM541.245 527.684C542.57 527.62 544.165 528.013 545.174 527.416C552.033 523.358 558.933 519.329 565.471 514.788C568.531 512.662 568.135 509.397 564.95 507.357C557.538 502.611 550.087 497.893 542.374 493.67C540.557 492.674 537.214 492.883 535.312 493.909C528.74 497.454 522.337 501.376 516.184 505.611C512.538 508.121 512.516 511.355 516.272 513.71C524.133 518.64 532.355 522.992 541.245 527.684ZM558.121 452.412C552.554 449.099 547.099 445.573 541.364 442.582C539.182 441.444 535.737 440.339 533.939 441.276C526.759 445.017 519.748 449.217 513.182 453.951C509.259 456.781 509.768 459.558 513.905 462.213C520.475 466.429 527.056 470.676 533.942 474.326C536.333 475.593 540.256 476.33 542.422 475.229C549.488 471.636 556.254 467.353 562.751 462.787C565.985 460.514 565.328 457.303 562.105 454.944C561.034 454.16 559.871 453.503 558.121 452.412ZM395.782 512.284C399.457 508.784 399.693 506.195 395.566 503.528C388.199 498.767 380.548 494.418 372.815 490.271C371.19 489.399 368.275 489.381 366.68 490.27C359.884 494.059 353.196 498.099 346.799 502.524C342.943 505.191 343.154 508.133 347.215 510.761C354.033 515.172 360.913 519.579 368.176 523.157C370.673 524.387 374.827 524.058 377.469 522.825C383.603 519.961 389.277 516.113 395.782 512.284ZM321.315 495.432C326.411 498.697 331.242 498.187 336.165 494.812C340.677 491.719 345.396 488.916 350.115 486.139C354.589 483.507 355.12 479.766 350.791 476.871C343.898 472.261 336.866 467.797 329.548 463.924C327.327 462.749 323.469 462.754 321.225 463.904C314.898 467.144 308.894 471.076 303.007 475.092C298.655 478.061 298.751 480.409 303.2 483.53C308.906 487.533 314.828 491.227 321.315 495.432ZM435.307 432.561C434.584 430.721 434.395 428.141 433.046 427.169C427.391 423.094 421.521 419.266 415.453 415.838C412.707 414.286 408.637 412.276 406.337 413.246C398.741 416.452 391.408 420.511 384.508 425.054C380.08 427.969 380.627 431.5 385.322 434.472C391.788 438.564 398.243 442.797 405.147 446.014C407.994 447.34 412.612 447.361 415.354 445.928C422.234 442.331 428.504 437.565 435.307 432.561ZM646.907 465.37C650.419 461.548 650.542 458.917 646.564 456.453C639.783 452.251 632.808 448.34 625.75 444.618C621.809 442.54 617.706 443.019 613.839 445.396C608.885 448.44 603.877 451.395 598.879 454.367C593.487 457.574 593.238 460.492 598.535 463.965C604.796 468.069 611.285 471.832 617.745 475.624C621.796 478.002 626.078 478.07 630.129 475.708C635.59 472.524 640.903 469.088 646.907 465.37ZM474.584 369.129C472.055 370.738 469.481 372.281 467.005 373.968C461.728 377.562 461.855 380.587 467.341 384.1C472.655 387.503 477.963 390.916 483.265 394.339C487.916 397.341 492.806 398.505 497.829 395.518C503.542 392.12 509.127 388.501 514.684 384.85C518.279 382.488 518.088 379.622 514.855 377.198C511.002 374.309 506.597 372.111 502.941 369.013C493.641 361.134 484.529 360.824 474.584 369.129ZM308.869 587.589C315.838 591.769 322.663 596.224 329.858 599.969C332.164 601.169 335.974 601.558 338.185 600.468C344.704 597.257 350.943 593.376 356.951 589.261C361.53 586.124 361.39 582.804 356.743 579.905C349.849 575.604 342.823 571.476 335.595 567.778C333.55 566.732 330.103 566.49 328.169 567.517C321.594 571.01 315.33 575.118 309.106 579.23C305.935 581.326 305.285 584.151 308.869 587.589ZM369.041 219.602C365.526 221.812 361.573 223.562 358.624 226.367C355.913 228.944 352.327 232.806 352.557 235.841C353.152 243.674 355.351 251.446 357.499 259.076C358.622 263.067 361.94 263.722 365.517 261.597C370.658 258.543 375.836 255.54 380.86 252.301C386.014 248.978 387.909 244.174 386.664 238.108C385.83 234.044 385.191 229.941 384.417 225.865C382.252 214.456 379.718 213.319 369.041 219.602ZM51.5016 341.867C52.9417 345.477 55.6117 346.239 58.7171 344.381C65.4254 340.369 72.1626 336.349 78.4787 331.768C80.4418 330.345 82.3723 326.947 82.1003 324.725C81.2152 317.494 79.5002 310.34 77.7072 303.256C76.7838 299.609 73.9301 297.086 70.1724 299.058C63.4221 302.601 56.9077 306.65 50.5695 310.897C47.3499 313.055 46.1705 316.431 47.1412 320.587C48.7285 327.383 49.901 334.276 51.5016 341.867ZM345.237 76.7118C339.193 80.4901 333.081 84.1664 327.128 88.0822C323.115 90.7214 321.685 94.6446 322.692 99.3561C324.008 105.518 325.233 111.705 326.794 117.805C328.121 122.99 330.891 124.286 335.685 121.719C341.674 118.512 347.465 114.917 353.217 111.292C356.739 109.072 358.376 105.796 357.494 101.494C356.061 94.5128 354.877 87.4736 353.215 80.5482C352.359 76.9817 350.125 74.6285 345.237 76.7118ZM309.86 538.732C314.614 541.447 319.487 543.978 324.093 546.926C329.266 550.237 334.181 549.597 339.083 546.66C343.785 543.844 348.301 540.709 353.066 538.011C358.571 534.894 359.133 531.365 353.887 527.995C347.465 523.87 340.848 519.974 333.999 516.626C331.599 515.453 327.738 515.137 325.449 516.266C318.489 519.698 311.843 523.832 305.338 528.094C302.408 530.014 302.817 532.957 305.276 535.329C306.463 536.474 307.916 537.343 309.86 538.732ZM242.205 546.668C245.417 546.596 249.116 547.526 251.742 546.249C257.832 543.289 263.537 539.456 269.145 535.607C273.573 532.568 273.636 530.12 269.217 527.152C262.189 522.432 254.978 517.938 247.544 513.899C245.576 512.83 242.045 512.897 240.038 513.963C233.59 517.387 227.358 521.29 221.36 525.464C217.313 528.28 217.549 532.04 221.73 534.679C228.195 538.76 234.871 542.508 242.205 546.668ZM270.532 515.047C273.677 516.922 277.001 518.556 279.927 520.726C285.42 524.798 290.386 523.69 295.501 520.055C299.692 517.076 304.167 514.494 308.337 511.489C310.222 510.13 312.969 508.17 312.969 506.483C312.969 504.696 310.455 502.483 308.541 501.201C302.884 497.413 297.152 493.658 291.098 490.579C288.372 489.193 284.155 488.064 281.755 489.209C274.6 492.624 267.88 497.028 261.257 501.447C258.334 503.397 258.604 506.339 261.427 508.538C264.177 510.679 267.108 512.589 270.532 515.047ZM188.913 578.768C181.725 574.005 174.543 569.234 167.347 564.483C164.066 562.316 160.837 562.523 157.551 564.61C151.808 568.258 145.945 571.72 140.243 575.43C135.725 578.37 135.495 581.161 140.017 584.245C146.727 588.821 153.753 592.944 160.754 597.074C164.21 599.114 167.761 598.629 171.111 596.453C176.679 592.837 182.289 589.286 187.838 585.642C190.238 584.066 191.246 582.02 188.913 578.768ZM307.543 674.201C311.307 671.777 315.275 669.612 318.786 666.864C323.594 663.099 323.519 660.078 318.486 656.661C312.31 652.468 306.072 648.237 299.397 644.968C296.739 643.667 292.357 643.876 289.609 645.183C283.656 648.014 278.149 651.847 272.654 655.557C268.161 658.59 268.09 661.771 272.672 664.948C278.116 668.723 283.928 671.972 289.604 675.408C295.537 679 301.301 678.333 307.543 674.201ZM141.093 504.086C147.069 500.497 153.11 497.01 158.995 493.279C162.546 491.028 163.967 487.913 162.713 483.47C160.871 476.947 159.494 470.289 158.027 463.664C156.8 458.122 154.732 457 149.63 459.982C143.043 463.832 136.488 467.801 130.326 472.278C128.39 473.685 126.451 477.099 126.781 479.244C127.861 486.249 129.8 493.147 131.782 499.977C132.98 504.109 136.027 505.756 141.093 504.086ZM226.475 616.088C227.181 615.646 227.908 615.235 228.589 614.758C236.189 609.439 236.095 606.364 227.95 601.428C222.683 598.237 217.148 595.485 211.919 592.235C207.188 589.295 202.845 589.715 198.401 592.664C193.827 595.699 189.272 598.778 184.563 601.596C179.386 604.694 179.018 607.837 184.026 611.386C187.959 614.173 192.433 616.218 196.257 619.132C204.429 625.36 212.409 626.361 220.728 619.557C222.258 618.306 224.136 617.482 226.475 616.088ZM257.004 183.521C252.8 186.189 249.726 189.73 250.682 194.978C251.958 201.982 253.708 208.907 255.442 215.818C256.382 219.566 259.44 220.696 262.404 218.966C269.537 214.803 276.55 210.356 283.142 205.4C284.951 204.039 286.134 200.343 285.824 197.95C284.931 191.067 283.353 184.245 281.613 177.509C280.15 171.843 277.486 171.038 272.469 174.101C267.524 177.12 262.566 180.117 257.004 183.521ZM322.639 315.901C323.592 319.944 324.538 323.989 325.5 328.03C326.908 333.946 329.573 335.344 334.81 332.446C340.635 329.222 346.45 325.908 351.879 322.079C353.953 320.616 356.417 317.441 356.168 315.348C355.173 306.978 353.548 298.631 351.391 290.477C350.42 286.81 347.287 285.621 343.463 288.17C338.894 291.214 334.076 293.885 329.353 296.697C320.255 302.114 319.177 304.964 322.639 315.901ZM509.834 442.401C512.566 440.527 515.496 438.881 517.983 436.724C521.549 433.631 521.237 431.479 517.323 428.927C511.345 425.029 505.554 420.78 499.291 417.409C496.381 415.842 491.891 414.492 489.262 415.648C482.331 418.696 475.844 422.899 469.535 427.167C465.036 430.21 465.301 432.782 469.881 436.022C473.539 438.609 477.384 440.94 481.213 443.275C495.15 451.773 495.16 451.756 509.834 442.401ZM430.32 544.934C432.426 543.592 434.543 542.267 436.638 540.906C443.304 536.575 443.594 532.974 436.879 528.674C430.595 524.65 423.972 521.019 417.127 518.078C414.542 516.967 410.52 517.415 407.851 518.654C402.295 521.234 397.151 524.731 391.938 528.01C386.427 531.476 386.554 535.035 392.276 538.434C395.563 540.387 399.571 541.502 402.238 544.055C411.211 552.648 420.172 553.079 430.32 544.934ZM70.3719 390.182C75.9386 386.579 81.7559 383.295 86.9534 379.22C89.1536 377.495 91.4297 374.025 91.2757 371.493C90.8557 364.59 89.3508 357.724 87.9122 350.92C86.6227 344.822 83.1733 343.247 77.6692 346.28C72.1498 349.322 66.8379 352.752 61.5241 356.151C57.354 358.818 55.4453 362.619 56.5315 367.642C57.8989 373.966 59.0595 380.344 60.7079 386.594C62.0734 391.771 64.3464 392.582 70.3719 390.182ZM271.191 548.772C269.534 549.887 267.902 551.039 266.218 552.11C261.412 555.166 260.959 558.066 265.625 561.134C272.554 565.69 279.803 569.793 287.135 573.672C288.931 574.622 291.983 574.77 293.765 573.888C300.448 570.581 306.984 566.919 313.296 562.947C317.499 560.302 317.611 557.165 313.683 554.127C309.625 550.989 304.863 548.758 300.819 545.605C291.319 538.199 282.471 539.415 273.794 546.884C273.164 547.426 272.467 547.889 271.191 548.772ZM287.604 112.131C284.068 114.978 280.17 117.781 281.411 123.133C283.021 130.076 284.781 137.001 286.894 143.804C288.101 147.69 291.311 148.893 294.865 146.841C301.046 143.273 307.393 139.806 312.902 135.347C315.268 133.432 317.122 128.968 316.751 125.966C315.862 118.768 313.659 111.712 311.703 104.676C310.66 100.922 307.538 99.8343 304.309 101.781C298.906 105.041 293.56 108.396 287.604 112.131ZM113.256 376.802C111.345 379.321 107.642 381.995 107.845 384.331C108.583 392.853 110.347 401.326 112.295 409.684C113.229 413.688 116.573 414.729 120.137 412.511C126.473 408.568 132.929 404.724 138.752 400.105C140.928 398.379 142.847 394.415 142.497 391.79C141.559 384.769 139.519 377.866 137.545 371.022C136.281 366.64 132.94 365.562 128.996 367.791C123.945 370.645 118.927 373.559 113.256 376.802ZM258.591 596.233C263.027 593.61 267.533 591.096 271.882 588.335C276.794 585.217 277.026 582.001 272.219 578.757C265.893 574.486 259.444 570.287 252.624 566.912C249.886 565.556 245.54 565.365 242.773 566.577C236.572 569.294 230.791 573.049 225.051 576.713C220.388 579.689 220.363 582.693 225.064 585.953C230.792 589.924 236.888 593.361 242.716 597.193C248.004 600.671 253.006 600.382 258.591 596.233ZM275.207 277.763C272.159 279.59 269.778 282.08 270.506 285.816C272.024 293.6 273.714 301.367 275.795 309.015C276.727 312.438 279.731 313.664 282.957 311.795C289.55 307.976 296.214 304.191 302.33 299.688C304.213 298.303 305.43 294.535 305.188 292.028C304.553 285.451 303.003 278.956 301.713 272.449C300.322 265.426 296.815 263.861 290.835 267.631C285.791 270.811 280.852 274.156 275.207 277.763ZM386.427 478.036C384.133 480.145 383.875 482.683 386.412 484.354C393.755 489.19 401.131 494.064 408.934 498.063C411.536 499.396 415.927 499.121 418.699 497.844C424.544 495.152 429.972 491.481 435.359 487.893C440.05 484.769 440.168 481.764 435.478 478.606C429.159 474.35 422.424 470.718 415.97 466.656C411.775 464.015 407.801 464.453 403.841 466.932C398.211 470.457 392.625 474.053 386.427 478.036ZM290.249 625.566C293.266 625.378 296.703 626.052 299.215 624.827C305.012 622.002 310.427 618.361 315.868 614.851C320.711 611.727 320.794 608.539 315.893 605.349C309.218 601.005 302.463 596.707 295.374 593.118C293.023 591.928 289.081 592.045 286.656 593.209C280.999 595.923 275.714 599.477 270.477 602.986C264.874 606.74 264.734 609.718 270.407 613.618C276.548 617.84 283.147 621.397 290.249 625.566ZM268.165 386.659C263.571 389.65 258.94 392.586 254.392 395.647C250.093 398.541 248.203 402.508 249.631 407.684C251.178 413.285 252.594 418.936 254.459 424.432C256.473 430.364 259.125 431.286 264.7 428.095C269.888 425.125 274.931 421.889 279.937 418.616C285.921 414.703 286.965 412.017 285.125 405.193C283.785 400.222 282.282 395.287 280.658 390.4C278.052 382.558 275.74 381.805 268.165 386.659ZM395.386 603.151C390.659 600.368 386.162 596.996 381.118 595.024C378.117 593.851 373.829 593.879 370.872 595.136C365.258 597.524 360.113 601.068 354.906 604.344C348.592 608.318 348.763 611.83 355.276 615.726C361.118 619.22 367.008 622.634 372.805 626.201C376.563 628.512 380.267 628.841 384.062 626.477C388.155 623.927 392.205 621.31 396.288 618.744C406.916 612.068 406.886 610.376 395.386 603.151ZM357.492 549.057C355.355 550.343 353.178 551.567 351.09 552.928C346.196 556.12 346.083 559.874 350.933 562.985C356.934 566.834 362.85 570.925 369.236 574.017C372.368 575.533 377.024 576.379 380.032 575.161C386.27 572.634 391.964 568.676 397.696 565.015C401.592 562.527 401.728 559.689 398.182 556.546C395.335 554.021 392.144 551.875 389.048 549.641C374.687 539.276 373.855 539.254 358.575 548.47C358.433 548.556 358.281 548.626 357.492 549.057ZM415.703 177.119C416.592 174.547 418.538 171.814 418.175 169.433C417.049 162.05 415.224 154.754 413.309 147.52C412.318 143.777 409.358 142.329 405.954 144.46C399.333 148.604 392.812 152.949 386.581 157.65C384.878 158.935 383.223 161.937 383.489 163.885C384.516 171.417 385.939 178.95 387.994 186.264C389.248 190.725 392.688 191.825 396.709 189.475C403.015 185.788 409.031 181.605 415.703 177.119ZM304.366 231.08C304.696 232.365 305 233.657 305.362 234.934C307.32 241.84 309.552 242.987 315.656 239.296C321.456 235.789 326.937 231.739 332.449 227.776C336.428 224.915 337.282 220.888 336.192 216.255C334.788 210.29 333.515 204.295 332.122 198.328C331.223 194.474 328.08 192.991 324.546 194.92C319.158 197.86 313.754 200.802 308.586 204.101C301.294 208.754 300.615 210.807 302.267 219.492C302.949 223.074 303.57 226.669 304.366 231.08ZM192.631 409.874C191.314 404.211 190.18 398.498 188.628 392.9C187.079 387.316 183.899 386.084 178.903 389.081C173.058 392.587 167.099 396.015 161.771 400.214C159.648 401.888 157.806 405.659 158.055 408.262C158.716 415.17 160.34 422.025 162.053 428.782C163.459 434.33 165.812 435.432 170.808 432.852C176.556 429.884 182.147 426.548 187.528 422.956C191.742 420.143 194.664 416.329 192.631 409.874ZM133.644 259.208C131.872 262.019 128.381 265.004 128.646 267.608C129.48 275.826 131.484 283.964 133.644 291.97C134.019 293.36 138.066 295.296 139.194 294.693C145.779 291.173 152.109 287.133 158.308 282.948C163.094 279.716 164.611 275.164 162.93 269.403C161.443 264.303 160.577 259.025 159.295 253.86C157.935 248.38 154.591 246.761 149.609 249.491C144.363 252.366 139.359 255.682 133.644 259.208ZM334.77 652.298C336.897 652.392 339.442 653.291 341.078 652.44C348.278 648.697 355.361 644.673 362.176 640.27C364.833 638.553 364.552 635.238 361.933 633.506C354.465 628.569 346.875 623.779 339.039 619.468C337.113 618.408 333.63 618.556 331.606 619.595C325.124 622.923 318.881 626.762 312.758 630.732C308.386 633.566 308.315 636.312 312.7 639.161C319.647 643.676 326.901 647.718 334.77 652.298ZM339.125 241.464C337.378 241.578 335.336 241.146 333.936 241.902C328.09 245.059 322.411 248.529 316.724 251.971C312.019 254.82 310.383 259.121 311.536 264.382C312.887 270.552 314.293 276.722 316.003 282.8C317.451 287.945 320.273 289.103 325.009 286.383C329.759 283.655 334.06 280.135 338.842 277.473C345.351 273.85 347.602 268.762 345.556 261.68C343.642 255.054 341.714 248.432 339.125 241.464ZM367.69 273.244C365.667 276.694 361.783 280.266 362 283.569C362.484 290.923 364.837 298.192 366.798 305.394C367.678 308.626 370.496 309.977 373.516 308.307C379.906 304.772 386.447 301.315 392.171 296.856C394.788 294.818 397.204 290.35 396.937 287.221C396.349 280.36 394.277 273.564 392.258 266.91C390.885 262.384 387.674 261.342 383.655 263.603C378.446 266.535 373.378 269.719 367.69 273.244ZM426.394 208.127C425.707 204.374 425.091 200.608 424.316 196.874C423.268 191.833 419.936 189.095 416.485 191.109C409.344 195.274 402.401 199.847 395.789 204.803C394.037 206.116 392.704 209.592 393.038 211.793C394.156 219.158 395.951 226.439 397.824 233.664C398.743 237.211 402.455 238.673 405.291 236.978C411.127 233.489 416.936 229.95 422.687 226.323C428.358 222.745 429.284 220.335 427.797 213.777C427.43 212.158 426.988 210.556 426.394 208.127ZM105.703 439.989C103.185 436.563 100.075 437.597 97.271 439.228C91.525 442.571 85.9149 446.152 80.3105 449.731C77.0436 451.818 75.6216 454.937 76.3846 458.744C77.7868 465.74 79.1787 472.749 80.9604 479.654C82.1716 484.347 85.0927 485.674 89.2288 483.263C95.6799 479.503 102.1 475.572 107.966 470.988C110.006 469.393 111.628 465.458 111.251 462.916C110.137 455.397 107.929 448.04 105.703 439.989ZM245.81 648.883C249.231 651.24 253.06 653.142 256.981 651.013C263.4 647.525 269.55 643.521 275.683 639.533C279.828 636.838 280.056 633.567 275.909 630.881C268.526 626.099 260.951 621.556 253.136 617.536C251.133 616.507 247.52 617.041 245.359 618.192C239.797 621.156 234.621 624.848 229.316 628.288C223.741 631.903 223.815 635.04 229.56 638.7C234.742 642.001 239.951 645.26 245.81 648.883ZM228.356 560.89C232.581 556.748 232.787 554.683 227.814 551.606C220.629 547.159 213.076 543.264 205.458 539.592C203.673 538.732 200.717 539.084 198.791 539.96C193.058 542.566 187.461 545.522 182.017 548.696C176.305 552.025 176.066 556.222 181.461 559.867C187.371 563.861 193.594 567.393 199.694 571.104C203.262 573.275 206.991 573.428 210.602 571.396C216.385 568.143 222.061 564.701 228.356 560.89ZM202.302 184.178C203.095 187.234 203.775 190.325 204.709 193.337C206.231 198.246 208.369 199.381 212.786 196.946C218.887 193.582 224.812 189.867 230.618 186.01C234.407 183.494 235.882 179.671 234.888 175.118C233.507 168.798 232.224 162.448 230.587 156.193C229.331 151.398 226.367 150.182 221.911 152.453C218.958 153.958 216.208 155.857 213.361 157.57C198.581 166.465 198.581 166.464 202.302 184.178ZM241.106 151.353C242.564 157.145 243.833 162.995 245.554 168.708C246.548 172.007 248.851 174.554 252.639 172.392C259.406 168.529 266.104 164.5 272.511 160.078C274.285 158.854 276.137 155.837 275.884 153.915C274.825 145.865 273.172 137.874 271.32 129.959C270.664 127.157 268.556 124.443 265.103 126.467C258.377 130.41 251.877 134.739 245.302 138.938C240.981 141.697 239.488 145.572 241.106 151.353ZM337.476 378.259C339.934 378.488 342.908 379.719 344.757 378.766C351.243 375.427 357.546 371.62 363.473 367.369C365.438 365.959 367.43 362.423 367.045 360.285C365.61 352.317 363.344 344.483 361.074 336.69C360.097 333.337 357.303 332.338 354.32 334.161C347.519 338.316 340.785 342.599 334.262 347.171C332.709 348.259 330.945 350.896 331.235 352.457C332.804 360.915 334.987 369.259 337.476 378.259ZM555.185 401.307C550.062 398.227 544.78 395.379 539.871 391.989C536.316 389.534 532.902 388.918 529.16 390.888C523.278 393.985 517.373 397.062 511.676 400.478C506.521 403.568 506.303 407.012 511.228 410.512C517.041 414.643 523.178 418.333 529.294 422.017C533.831 424.75 538.535 424.425 543.045 421.78C547.49 419.172 551.95 416.575 556.261 413.756C563.433 409.064 563.279 406.02 555.185 401.307ZM341.75 452.594C342.595 454.566 342.887 457.334 344.381 458.375C351.312 463.204 358.458 467.765 365.808 471.925C367.59 472.933 370.888 472.88 372.721 471.891C379.28 468.351 385.664 464.426 391.815 460.209C396.659 456.888 396.252 453.818 391.112 450.836C384.519 447.013 377.854 443.31 371.332 439.371C367.839 437.261 364.485 436.93 361.069 439.186C354.709 443.387 348.404 447.671 341.75 452.594ZM484.261 544.334C488.32 546.598 492.213 549.28 496.496 550.976C499.211 552.052 503.109 552.861 505.426 551.698C511.909 548.445 517.975 544.289 523.946 540.118C527.145 537.884 527.417 534.782 523.802 532.467C516.545 527.82 509.284 523.148 501.748 518.989C499.937 517.989 496.633 518.167 494.721 519.159C488.55 522.363 482.497 525.898 476.799 529.878C471.448 533.616 471.688 535.886 476.952 539.62C479.116 541.155 481.407 542.514 484.261 544.334ZM243.574 378.765C245.888 384.984 247.904 386.159 252.399 383.475C258.668 379.733 264.933 375.952 270.908 371.77C272.691 370.521 274.78 367.698 274.531 365.901C273.396 357.705 271.714 349.559 269.728 341.519C268.924 338.261 265.854 336.383 262.643 338.151C256.099 341.755 249.655 345.634 243.632 350.033C241.764 351.398 240.359 354.876 240.523 357.264C241 364.199 242.38 371.072 243.574 378.765ZM567.468 445.143C570.298 446.544 573.001 448.527 575.995 449.185C579.013 449.85 582.787 450.179 585.407 448.929C591.526 446.01 597.258 442.219 602.938 438.464C606.756 435.94 606.814 433.127 602.957 430.607C596.006 426.066 588.947 421.617 581.566 417.848C579.125 416.601 575.046 416.527 572.597 417.722C566.053 420.916 559.909 424.966 553.763 428.921C550.165 431.236 550.43 434.142 553.816 436.476C558.049 439.393 562.474 442.03 567.468 445.143ZM343.666 169.327C350.599 164.819 357.702 160.543 364.35 155.649C366.135 154.335 367.675 150.97 367.361 148.835C366.277 141.475 364.665 134.143 362.579 126.997C361.271 122.516 357.914 121.606 353.967 123.999C348.573 127.269 343.35 130.82 337.99 134.147C333.332 137.039 331.428 141.239 332.486 146.459C333.702 152.458 335.029 158.497 337.108 164.228C337.889 166.381 340.915 167.719 343.666 169.327ZM293.313 371.962C292.111 374.593 289.536 377.475 289.961 379.81C291.295 387.12 293.442 394.342 296.021 401.321C296.628 402.964 300.929 405.004 302.234 404.334C309.76 400.473 317.045 396.072 324.052 391.324C325.648 390.243 326.863 386.858 326.467 384.895C325.056 377.904 323.062 371.009 320.922 364.193C319.33 359.123 316.225 357.924 311.731 360.519C305.683 364.011 299.818 367.82 293.313 371.962ZM231.173 199.705C225.594 203.014 219.741 205.954 214.561 209.8C212.24 211.524 209.696 215.235 209.973 217.745C210.824 225.458 212.728 233.096 214.757 240.62C215.712 244.158 218.882 245.769 222.284 243.688C229.064 239.542 235.701 235.133 242.141 230.478C243.676 229.369 245.263 226.714 245.017 225.034C243.94 217.664 242.541 210.298 240.588 203.112C239.05 197.452 237.045 196.911 231.173 199.705ZM281.489 339.029C282.611 343.877 283.546 348.778 284.904 353.56C286.397 358.819 289.558 360.212 294.322 357.524C300.1 354.264 305.721 350.698 311.226 346.992C315.043 344.422 316.288 340.664 315.162 336.066C313.664 329.946 312.288 323.792 311.016 317.62C309.89 312.162 307.692 310.89 302.699 313.518C297.854 316.069 293.162 318.916 288.453 321.718C280.679 326.345 279.537 329.075 281.489 339.029ZM563.023 476.567C562.175 477.095 561.318 477.608 560.482 478.154C553.865 482.483 553.334 485.776 559.73 490.189C566.264 494.697 573.489 498.235 580.567 501.896C581.97 502.622 584.407 502.606 585.806 501.868C592.55 498.311 599.307 494.699 605.645 490.483C609.577 487.868 609.354 484.934 605.463 482.043C601.335 478.976 596.652 476.647 592.567 473.529C584.823 467.619 577.237 467.21 569.317 473.034C567.589 474.304 565.54 475.137 563.023 476.567ZM346.931 211.496C349.351 216.198 351.578 217.095 355.936 214.518C361.512 211.221 367.106 207.878 372.268 203.991C374.46 202.34 377.155 199.074 376.897 196.859C375.927 188.542 374.177 180.263 371.982 172.17C371.182 169.222 368.052 167.583 364.656 169.768C358.517 173.718 352.415 177.726 346.284 181.69C343.334 183.597 341.933 186.232 342.588 189.734C343.9 196.746 345.292 203.743 346.931 211.496ZM140.869 307.667C137.561 311.126 138.04 315.207 138.906 319.377C140.017 324.727 141.209 330.066 142.117 335.451C143.082 341.176 146.095 343.022 151.165 340.142C156.926 336.87 162.597 333.362 167.915 329.427C170.147 327.775 173.056 324.521 172.756 322.407C171.56 313.982 169.511 305.635 167.137 297.445C166.401 294.908 163.408 293.659 160.46 295.452C154.093 299.322 147.745 303.226 140.869 307.667ZM178.655 347.936C177.432 341.753 175.293 339.446 171.862 341.392C164.662 345.477 157.702 350.015 150.875 354.703C149.292 355.791 147.463 358.444 147.749 360.012C149.29 368.466 151.247 376.866 153.636 385.118C154.012 386.416 158.021 388.126 159.176 387.496C166.587 383.448 173.823 379.018 180.744 374.182C182.265 373.119 183.138 369.788 182.839 367.712C181.92 361.323 180.289 355.036 178.655 347.936ZM221.353 259.224C220.745 261.241 219.335 263.403 219.671 265.248C221.004 272.589 222.727 279.871 224.624 287.092C225.586 290.754 228.538 291.739 231.705 289.998C238.684 286.163 245.678 282.283 252.229 277.785C254.13 276.48 255.844 272.761 255.414 270.59C253.903 262.965 251.679 255.442 249.092 248.104C248.565 246.61 244.523 244.714 243.396 245.339C236.02 249.424 229.001 254.152 221.353 259.224ZM427.739 452.539C425.539 455.137 426.017 457.689 428.593 459.402C435.904 464.262 443.316 468.983 450.867 473.457C452.367 474.346 455.124 474.711 456.511 473.925C463.718 469.835 470.765 465.438 477.659 460.834C480.1 459.204 480.437 456.514 477.671 454.629C471.494 450.419 465.297 446.216 458.89 442.374C453.692 439.257 448.319 438.94 442.973 442.636C438.196 445.939 433.179 448.895 427.739 452.539ZM222.937 337.5C221.941 332.111 221.161 326.67 219.887 321.348C218.704 316.409 215.69 314.868 211.363 317.21C205.238 320.526 199.249 324.16 193.535 328.138C191.553 329.517 189.168 332.462 189.366 334.454C190.165 342.491 191.555 350.517 193.438 358.377C194.346 362.167 197.66 363.387 201.378 361.249C207.278 357.855 213.309 354.643 218.947 350.852C224.877 346.866 225.164 345.219 222.937 337.5ZM198.453 225.207C196.572 222.174 194.115 221.89 191.248 223.733C185.381 227.506 179.515 231.28 173.667 235.082C170.307 237.266 168.534 240.285 169.31 244.372C170.642 251.38 171.864 258.421 173.553 265.345C174.654 269.86 177.82 271.266 181.927 268.832C188.338 265.032 194.537 260.823 200.503 256.355C202.275 255.028 204.222 252.054 203.928 250.173C202.655 242.016 200.582 233.984 198.453 225.207ZM379.76 55.3143C375.193 58.633 370.408 61.7025 366.17 65.3986C364.571 66.7929 363.184 69.8116 363.512 71.7891C364.759 79.3036 366.577 86.74 368.527 94.1144C369.561 98.0277 372.779 98.9558 376.02 97.0738C382.338 93.4059 388.695 89.6634 394.39 85.1394C396.519 83.4483 397.862 79.46 397.776 76.5726C397.619 71.3202 396.326 66.0618 395.147 60.888C392.619 49.7939 390.091 48.8362 379.76 55.3143ZM390.114 140.696C394.791 137.841 399.829 135.42 403.998 131.954C406.215 130.111 408.335 126.305 408.048 123.65C407.265 116.431 405.409 109.291 403.528 102.24C402.159 97.1099 399.675 96.2155 394.946 98.9991C389.371 102.28 384.082 106.044 378.589 109.468C373.758 112.48 372.672 116.821 373.87 121.99C374.918 126.518 376.378 130.959 377.255 135.515C379.414 146.731 379.707 146.926 390.114 140.696ZM208.584 371.121C206.745 372.255 204.379 372.998 203.187 374.61C201.239 377.246 198.572 380.588 198.836 383.384C199.531 390.752 201.379 398.056 203.279 405.251C204.439 409.644 207.386 410.763 211.345 408.472C217.668 404.814 223.893 400.934 229.829 396.685C231.786 395.284 234.156 392.243 233.872 390.314C232.695 382.301 230.845 374.352 228.69 366.531C227.609 362.605 224.485 361.656 220.785 363.863C216.929 366.164 213.057 368.437 208.584 371.121ZM210.299 439.196C211.498 443.159 212.414 447.238 213.977 451.052C215.463 454.677 218.656 456.097 222.149 454.056C228.882 450.121 235.432 445.859 241.923 441.53C244.809 439.606 245.789 436.765 244.664 433.237C242.448 426.291 240.563 419.235 238.193 412.344C237.08 409.106 234.792 407.52 231.213 409.833C227.308 412.357 223.249 414.641 219.261 417.037C207.74 423.96 207.308 424.972 210.299 439.196ZM91.7497 271.445C96.7351 268.473 102.088 265.957 106.568 262.356C109.26 260.193 112.438 256.174 112.181 253.275C111.484 245.443 109.262 237.713 107.232 230.052C106.464 227.153 103.9 225.733 100.914 227.412C94.5632 230.983 88.2387 234.618 82.0827 238.511C77.9887 241.099 76.7474 245.074 77.9555 249.806C79.5126 255.905 81.1685 261.986 82.4902 268.137C83.7063 273.796 85.9814 274.894 91.7497 271.445ZM203.757 457.815C202.127 451.723 200.518 445.625 198.862 439.54C197.418 434.233 194.574 432.338 190.82 434.528C184.935 437.961 178.995 441.393 173.567 445.475C171.157 447.288 168.222 450.877 168.496 453.327C169.373 461.152 171.387 468.891 173.498 476.515C174.34 479.554 177.509 480.99 180.416 479.348C187.206 475.511 193.809 471.325 200.326 467.035C203.204 465.14 205.272 462.473 203.757 457.815ZM374.938 344.445C375.785 346.793 376.526 349.187 377.506 351.478C378.87 354.667 381.475 355.761 384.419 354.071C391.197 350.18 397.965 346.212 404.341 341.713C406.328 340.31 408.51 336.796 408.084 334.78C406.411 326.854 403.878 319.092 401.352 311.371C400.47 308.677 398.12 307.375 395.341 309.08C388.539 313.254 381.679 317.371 375.198 322.007C373.534 323.198 372.296 326.277 372.411 328.404C372.687 333.517 373.881 338.58 374.938 344.445ZM40.4594 288.234C40.7061 289.538 40.886 290.859 41.2106 292.143C42.8581 298.66 45.4617 299.842 51.1009 296.513C56.5327 293.307 62.1889 290.36 67.1448 286.522C69.4319 284.751 71.7837 280.968 71.5071 278.375C70.6857 270.673 68.8792 263.025 66.8462 255.522C65.7136 251.342 62.7916 250.692 59.1096 252.917C54.4216 255.749 49.6926 258.523 45.1038 261.51C35.416 267.817 34.5953 270.365 38.2842 281.283C38.9748 283.327 39.599 285.394 40.4594 288.234ZM89.7227 305.735C90.3839 308.823 90.9348 311.94 91.7318 314.992C92.995 319.829 96.3906 321.378 100.656 318.885C105.825 315.864 111.179 312.987 115.771 309.217C118.628 306.871 122.2 302.859 122.001 299.821C121.475 291.792 119.306 283.823 117.179 275.996C116.827 274.699 112.717 272.963 111.498 273.609C105.198 276.945 99.2261 280.917 93.2348 284.813C88.8238 287.681 86.346 291.378 88.2468 297.035C89.0826 299.522 89.1521 302.267 89.7227 305.735ZM452.903 574.797C458.666 577.995 464.314 577.822 469.904 574.313C473.988 571.75 478.243 569.443 482.208 566.711C487.004 563.406 487.212 560.085 482.382 556.95C475.563 552.525 468.424 548.562 461.216 544.794C459.374 543.831 456.287 543.445 454.583 544.339C447.685 547.958 440.946 551.946 434.472 556.28C431.383 558.348 431.991 562.005 435.218 564.02C440.861 567.544 446.555 570.985 452.903 574.797ZM252.151 291.745C246.007 295.662 239.801 299.488 233.764 303.563C232.355 304.514 230.424 306.456 230.59 307.694C231.808 316.801 233.134 325.928 235.222 334.863C236.022 338.284 239.628 338.649 242.659 336.723C248.678 332.898 254.893 329.288 260.424 324.839C262.617 323.075 264.593 319.14 264.258 316.498C263.33 309.157 261.352 301.916 259.336 294.763C258.54 291.938 256.288 289.967 252.151 291.745ZM153.255 227.942C151.734 220.81 150.201 213.681 148.696 206.547C147.763 202.124 144.584 200.345 140.68 202.61C134.507 206.192 128.511 210.089 122.542 214.007C119.026 216.315 117.519 219.725 118.404 223.922C119.702 230.085 120.841 236.303 122.578 242.346C124.15 247.817 127.001 248.977 131.995 246.426C137.164 243.785 142.091 240.674 147.159 237.831C150.747 235.819 152.959 232.946 153.255 227.942ZM130.438 338.186C129.388 333.838 128.172 329.522 127.331 325.134C126.422 320.391 123.29 318.506 119.128 320.922C113.386 324.255 107.792 327.854 102.237 331.495C98.2743 334.092 96.4133 337.864 97.3412 342.626C98.5772 348.971 99.7464 355.347 101.419 361.582C102.868 366.982 106.515 368.001 111.358 364.879C115.26 362.364 119.061 359.676 123.08 357.366C133.023 351.653 133.788 349.96 130.438 338.186ZM190.564 185.092C189.909 183.063 189.821 180.39 188.446 179.178C186.926 177.838 183.628 176.68 182.144 177.449C175.681 180.799 169.464 184.686 163.452 188.808C161.6 190.078 159.341 192.877 159.565 194.692C160.611 203.182 162.116 211.659 164.181 219.96C165.065 223.511 168.223 224.449 171.741 222.17C177.583 218.384 183.556 214.799 189.405 211.022C193.632 208.292 195.282 204.406 194.042 199.428C192.921 194.924 191.794 190.42 190.564 185.092ZM430.028 273.634C435.712 270.328 439.097 265.871 437.427 258.877C436.075 253.22 435.011 247.474 433.287 241.932C431.793 237.129 428.687 236.016 424.395 238.478C418.916 241.621 413.417 244.813 408.362 248.571C406.177 250.194 403.62 253.374 403.761 255.693C404.228 263.433 405.34 271.226 407.185 278.758C408.472 284.015 412.178 284.995 416.897 282.208C421.189 279.674 425.27 276.78 430.028 273.634ZM106.209 486.611C100.985 489.859 95.8545 493.275 90.5005 496.294C87.1283 498.195 85.3943 500.82 86.2942 504.441C88.0105 511.349 89.8503 518.258 92.2266 524.958C94.1261 530.314 97.0458 531.289 101.949 528.381C107.801 524.91 113.317 520.876 119 517.119C122.236 514.979 123.02 512.083 121.984 508.456C120.295 502.545 118.634 496.625 117.068 490.68C115.279 483.893 113.082 482.897 106.209 486.611ZM70.9128 403.505C67.2036 405.236 64.9994 408.05 65.9016 412.209C67.4775 419.473 69.2318 426.71 71.2753 433.854C72.1318 436.848 74.1663 439.597 77.9092 437.524C84.136 434.075 90.2705 430.436 96.2634 426.596C100.586 423.826 102.336 419.706 101.03 414.544C99.6479 409.079 98.3703 403.586 96.8609 398.157C94.7501 390.564 91.7861 389.518 85.1169 393.929C80.5567 396.946 76.0759 400.082 70.9128 403.505ZM209.826 275.904C207.564 270.108 205.751 268.8 202.339 270.737C196.715 273.93 191.088 277.13 185.598 280.545C178.705 284.831 178.175 286.448 179.934 294.303C181.238 300.127 182.073 306.083 183.779 311.782C185.281 316.799 187.976 317.706 192.531 315.046C198.261 311.701 203.85 308.087 209.29 304.288C213.053 301.661 215.15 298.134 213.813 293.124C212.362 287.685 211.317 282.137 209.826 275.904ZM305.93 153.491C302.319 155.859 298.405 157.886 295.21 160.723C293.335 162.388 291.28 165.536 291.595 167.682C292.721 175.375 294.646 182.973 296.624 190.513C297.758 194.837 300.416 195.807 304.185 193.576C310.038 190.111 315.732 186.381 321.553 182.861C326.402 179.927 327.618 175.827 326.227 170.489C325.017 165.846 324.089 161.123 323.198 156.405C321.562 147.751 318.487 146.277 310.9 150.654C309.46 151.485 308.019 152.315 305.93 153.491ZM264.52 232.141C263.164 234.502 260.429 237.037 260.701 239.192C261.652 246.727 263.556 254.151 265.273 261.576C266.174 265.475 269.276 267.039 272.473 265.202C279.49 261.17 286.32 256.719 292.748 251.812C294.544 250.44 295.734 246.71 295.36 244.354C294.221 237.175 292.37 230.086 290.411 223.071C289.531 219.919 287.061 218.453 283.812 220.368C277.529 224.073 271.318 227.899 264.52 232.141ZM140.029 451.575C142.574 450.006 145.454 448.787 147.562 446.763C149.398 445.001 151.715 442.172 151.47 440.09C150.563 432.378 149.067 424.675 147.026 417.178C145.809 412.712 142.663 412.068 138.467 414.462C133.848 417.098 128.972 419.439 124.82 422.69C121.868 425 117.711 428.803 117.958 431.598C118.693 439.89 121.05 448.097 123.392 456.157C124.267 459.17 127.325 460.148 130.38 458.165C133.445 456.175 136.436 454.072 140.029 451.575ZM597.388 526.124C594.201 524.346 591.125 522.307 587.784 520.892C585.95 520.115 583.239 519.539 581.666 520.337C574.573 523.933 567.627 527.86 560.871 532.059C557.221 534.328 557.255 537.652 560.817 540.104C566.957 544.332 573.094 548.696 579.727 552.013C582.536 553.417 587.176 553.492 589.971 552.116C596.323 548.988 602.182 544.775 607.979 540.635C611.618 538.035 611.377 535.318 607.644 532.683C604.53 530.486 601.21 528.581 597.388 526.124ZM615.402 524.167C622.316 529.809 629.123 529.696 636.139 524.163C639.252 521.708 642.843 519.864 646.172 517.673C651.95 513.869 652.17 509.766 646.41 506.162C640.509 502.47 634.43 498.979 628.122 496.065C625.938 495.056 622.435 495.211 620.224 496.272C614.107 499.207 608.24 502.718 602.49 506.345C597.3 509.618 597.337 512.737 602.469 516.234C606.441 518.94 610.661 521.283 615.402 524.167ZM443.449 619.123C447.84 621.819 452.04 624.935 456.696 627.047C459.306 628.231 463.259 628.942 465.583 627.794C472.104 624.574 478.261 620.517 484.237 616.328C488.663 613.225 488.546 610.337 484.08 607.359C478.281 603.493 472.232 599.998 466.244 596.423C462.611 594.254 459.077 594.499 455.479 596.844C451.447 599.474 447.136 601.675 443.097 604.295C432.915 610.899 432.942 611.367 443.449 619.123ZM413.878 650.758C419.136 654.749 424.361 654.059 429.646 650.751C433.879 648.103 438.246 645.668 442.454 642.982C448.268 639.269 448.497 636.369 442.907 632.597C437.119 628.691 431.238 624.753 424.922 621.875C422.065 620.573 417.607 620.794 414.664 622.1C408.927 624.646 403.712 628.388 398.344 631.737C393.117 634.998 392.945 638.115 398.139 641.567C402.983 644.786 408.165 647.497 413.878 650.758ZM374.406 646.604C368.625 650.218 362.716 653.646 357.103 657.505C352.688 660.54 352.701 662.885 357.079 665.909C362.815 669.87 368.56 673.974 374.801 676.977C377.642 678.344 382.127 678.265 385.087 677.007C391.164 674.423 396.781 670.712 402.463 667.259C407.174 664.396 407.476 661.099 402.974 658.057C396.928 653.973 390.684 650.088 384.162 646.851C381.66 645.609 378.157 646.383 374.406 646.604ZM560.181 554.352C556.987 552.287 553.672 550.385 550.625 548.123C544.62 543.665 541.5 543.229 535.257 547.155C530.63 550.065 526.17 553.268 521.82 556.582C516.315 560.777 516.698 563.991 522.804 567.667C527.204 570.316 531.81 572.716 535.86 575.83C540.85 579.667 545.629 579.448 550.593 576.376C554.259 574.107 557.84 571.68 561.298 569.108C564.086 567.033 566.633 564.636 569.288 562.382C566.474 559.809 563.661 557.235 560.181 554.352ZM481.509 581.163C480.365 581.833 479.167 582.427 478.087 583.188C475.434 585.055 475.385 588.454 478.087 590.159C484.261 594.056 490.356 598.128 496.804 601.517C499.326 602.843 503.298 603.793 505.59 602.726C512.627 599.448 519.333 595.359 525.842 591.089C529.486 588.698 529.255 585.577 525.581 583.129C519.919 579.356 513.983 575.995 508.258 572.314C503.985 569.565 499.721 569.729 495.562 572.183C490.989 574.88 486.6 577.89 481.509 581.163ZM338.041 669.819C330.375 674.354 322.558 678.657 315.117 683.535C312.015 685.568 313.159 688.946 315.779 690.626C321.185 694.093 326.696 697.661 332.645 699.919C336.584 701.414 341.782 701.977 345.661 700.687C351.693 698.682 357.199 694.934 362.699 691.552C365.849 689.616 366.376 686.326 363.099 684.24C355.165 679.188 346.916 674.63 338.041 669.819ZM364.572 12.7137C354.846 14.9802 352.32 17.7935 353.61 26.4956C354.629 33.3656 356.343 40.1523 358.093 46.8864C359.177 51.0551 361.962 52.3 365.697 50.2192C371.634 46.9125 377.514 43.4337 383.069 39.5312C389.492 35.0187 390.435 29.2678 386.15 22.6863C381.309 15.2497 374.439 11.6368 364.572 12.7137ZM672.408 501.14C673.555 499.725 674.866 498.413 675.821 496.879C681.776 487.309 680.445 479.334 671.809 472.248C668.435 469.478 664.796 468.41 660.795 470.812C654.681 474.482 648.49 478.049 642.583 482.032C638.387 484.861 638.518 487.636 642.942 490.497C649.212 494.551 655.751 498.188 662.139 502.062C665.51 504.106 668.713 504.075 672.408 501.14Z" fill="#FF5300"/>
</svg>
