<svg preserveAspectRatio="none" width="100%" height="100%" overflow="visible" style="display: block;" viewBox="0 0 226 283" fill="none" xmlns="http://www.w3.org/2000/svg">
<path id="Vector" d="M110.315 78.3281C108.51 126.425 106.708 174.246 104.925 222.067C104.239 240.49 103.596 258.913 102.927 277.336C102.888 278.414 102.765 279.488 102.729 280.566C102.673 282.254 101.864 283.056 100.129 282.997C97.2714 282.899 94.4121 282.824 91.5536 282.818C89.0394 282.813 88.1751 281.638 88.1674 279.159C88.1264 266.018 87.9556 252.876 87.8236 239.735C87.3161 189.231 86.6631 138.728 86.4166 88.2222C86.3666 77.9747 87.7298 67.7088 88.7047 57.4762C88.9453 54.9508 88.4223 53.9563 85.9139 53.5213C69.141 50.6128 53.4264 44.8026 38.73 36.2494C36.2441 34.8026 35.2518 35.112 34.3611 37.8789C33.4935 40.5739 32.6459 43.3453 32.3509 46.1418C29.2047 75.9732 26.126 105.812 23.1191 135.658C20.7409 159.262 18.4747 182.878 16.1998 206.493C15.9477 209.11 14.8212 210.908 12.3041 211.835C11.2918 212.207 10.3378 212.737 9.35843 213.198C3.32211 216.038 -0.412615 213.568 0.0364458 207.002C1.03342 192.425 2.06712 177.851 3.05785 163.273C5.48468 127.564 7.81581 91.8487 10.3808 56.1497C10.8901 49.0609 10.8024 41.8204 13.7391 35.0488C15.6263 30.6973 18.6156 27.2994 21.9751 24.0623C22.9457 23.127 23.6034 21.4909 23.7045 20.1248C23.8913 17.6012 23.647 15.0322 23.4244 12.4958C23.139 9.24411 24.598 7.1494 27.6192 6.28193C32.7125 4.81948 37.7902 2.91906 43.0028 2.33395C53.1729 1.19238 63.4228 0.457718 73.6553 0.220827C100.58 -0.402522 127.498 0.239074 154.309 2.84807C166.44 4.02863 178.481 6.19859 190.528 8.13456C193.307 8.58118 195.946 9.90089 198.644 10.8338C201.162 11.7045 202.629 13.5182 202.563 16.1263C202.486 19.2347 201.929 22.3295 201.801 25.4392C201.758 26.4768 202.063 28.0835 202.771 28.5137C213.47 35.0111 217.858 44.8508 218.407 56.8626C220.002 91.7358 221.627 126.608 223.244 161.48C224.116 180.287 225.022 199.093 225.844 217.903C225.964 220.657 226.716 223.855 223.372 225.434C219.945 227.053 217.114 225.404 214.383 223.427C212.323 221.936 211.378 220.058 211.197 217.489C209.003 186.386 206.798 155.282 204.452 124.19C202.564 99.1638 200.488 74.1517 198.473 49.1353C198.121 44.7721 196.131 41.0658 193.436 37.726C191.448 35.2636 189.087 34.7367 186.353 36.1025C173.038 42.7543 158.805 46.7262 144.375 49.9427C135.553 51.9093 126.559 53.1479 117.609 54.4988C115.087 54.8795 113.838 56.2098 113.462 58.3672C112.323 64.9125 111.358 71.4881 110.315 78.3281Z" fill="#FF5300"/>
</svg>
